<svg viewBox="0 0 443.978 504.001" xml:space="preserve" xmlns="http://www.w3.org/2000/svg" enable-background="new 0 0 443.978 504.001"><path d="M433.579 361.289c.78 4.75 1.3 10.11 1.14 15.54-.5 16.37-15.5 50.09-25.22 56.92-3.61 2.53-8.19 3.47-12.51 3.65-6.19.26-11.39-4.87-11-11.06.25-3.95-.46-8.18-1.91-12.63-1.71-5.23-.65-10.89 2.53-15.37 2.78-3.91 4.09-8.49 4.32-13.56.32-7.22 4.68-13.7 11.46-16.19 7.52-2.77 13.62-6.6 18.42-11.43 4.32-4.34 11.78-1.91 12.77 4.13zM425.749 179.589c7.43-3.02 15.29 3.13 14.11 11.06-1.58 10.59-4.7 24-10.9 35.56-12.5 23.34-57.04 54.28-63.08 71.08-6.04 16.81 7.4 22.29 10.6 31.42 3.2 9.12 3.29 31.22-3.76 42.18-7.05 10.95-27.29 14.62-34 25.5-6.7 10.88 7.19 19.5 3.19 29.92-4 10.41-14.02 7.6-22.07 12.75s-6.09 43.64-20.93 52.44c-9.5 5.63-17.41-.45-27.01-1.19-9.61-.75-17.76 11.05-29.55 9.56s-15.83-9.7-16.18-16.18c-.36-6.48 5.4-14.68 2.2-22.04-3.2-7.36-17.12-5.34-20.99-14.59-3.88-9.24 1.75-18.57-2.03-33.21-5.58-21.61-19.15-28.57-19.15-44.44 0-9.6 5.38-18.89 9.64-24.73 1.44-1.98 2.16-4.31 2.16-6.64 0-2.29-.69-4.57-2.09-6.53-2.13-2.97-2.65-6.78-1.47-10.23 1.82-5.34 3.81-13.9 1.39-21.42-3.86-12.01-24.62-19.45-24.39-31.73.23-12.27 14.05-27.23 6.17-34.32-7.87-7.09-21.02 3.46-28.2 0-7.17-3.46-3.53-12.69-12.23-16.3-8.69-3.62-25.94 14.13-37.03 15.02-10.33.84-6.92-6.93-15.92-9.12-9-2.2-11.89 13.42-24.81 10.16-12.92-3.26-55.42-61.23-55.42-74.06s8.62-16.63 10.38-25.53c1.77-8.91-4.49-14.88-4.49-24 0-9.13 17.69-37.94 24.27-43.16 6.59-5.23 19.8-5.03 26-10.55 6.19-5.51 4.22-15.99 8.58-24.27 4.35-8.28 16.06-18.53 26.97-22.81 8.05-3.16 56.27-4.63 80.97-5.19 6.88-.15 12.05 6.13 10.7 12.87-1.25 6.18-1.6 12.83 1.51 15.86 6.6 6.41 16.44.34 24.6 1.73s11.19 14.7 21.26 14.7c10.07 0 9.46-11.72 18.34-14.92 12.7-4.58 59.82-2.43 69.94 6.09 10.11 8.53 1.27 22.72 1.27 31.07s4.75 22.11 10.12 25.93c5.06 3.61 11.7 1.9 16.07 7.74 2.8 3.75 3.02 12.66 2.82 18.58 0 .12-.01.23-.01.35a9.65 9.65 0 0 0 4.83 8.35 9.697 9.697 0 0 1 4.75 7.13l.49 3.79c.4 3.08 1.78 5.85 3.82 7.98 2.04 2.13 4.75 3.62 7.81 4.15 5.42.93 9.87 4.91 11.25 10.24 1.6 6.13 4.93 13.94 11.81 17.66 6.44 3.47 18.08.19 27.69-3.71z" fill="#e8af54" class="fill-f1c27d"></path><path d="M438.519 177.88c-4.096-3.22-9.432-3.968-14.275-2-11.421 4.641-20.269 6.061-24.279 3.896-5.675-3.064-8.483-9.927-9.84-15.145-1.767-6.794-7.436-11.965-14.444-13.175a10.107 10.107 0 0 1-8.344-8.698l-.492-3.795a13.757 13.757 0 0 0-6.711-10.075 5.66 5.66 0 0 1-2.828-5.104c.357-10.33-.857-17.432-3.611-21.11-3.425-4.574-7.91-5.683-11.514-6.573-2.133-.527-3.975-.982-5.442-2.028-3.866-2.754-8.441-15.044-8.441-22.673 0-1.956.714-4.709 1.471-7.625 2.064-7.961 4.893-18.865-4.161-26.498-11.345-9.563-60.147-11.75-73.872-6.801-5.264 1.898-7.927 5.974-10.066 9.248-2.466 3.772-3.691 5.439-6.918 5.439-3.409 0-5.728-2.417-9.14-6.396-2.962-3.455-6.319-7.371-11.448-8.245-3.717-.636-7.395-.045-10.949.525-5.491.879-8.983 1.292-11.531-1.182-1.147-1.116-1.852-4.907-.385-12.2.895-4.439-.254-8.968-3.15-12.425-2.872-3.427-7.103-5.319-11.558-5.235-33.106.746-74.265 2.299-82.337 5.464-11.36 4.451-24.122 15.286-29.057 24.665-2.143 4.072-2.938 8.484-3.64 12.376-.825 4.576-1.538 8.527-4.063 10.775-2.466 2.196-7.111 3.421-11.604 4.605-5.09 1.342-10.354 2.73-14.215 5.792-6.904 5.476-25.791 35.102-25.791 46.292 0 4.803 1.453 8.788 2.734 12.303 1.391 3.814 2.592 7.108 1.837 10.919-.57 2.877-2.149 5.22-3.979 7.932C3.593 145.409 0 150.737 0 159.509c0 10.576 19.704 37.676 23.653 43.001 5.6 7.548 24.654 32.375 34.786 34.933 9.185 2.319 14.595-2.8 18.547-6.538 3.072-2.906 4.501-4.048 6.297-3.61 2.63.641 3.457 1.79 4.71 3.528 1.927 2.673 4.57 6.333 12.479 5.696 5.916-.478 12.591-4.546 19.045-8.482 5.574-3.398 13.206-8.05 16.13-6.838 2.772 1.152 3.483 2.953 4.6 6.302 1.12 3.359 2.514 7.541 7.429 9.912 4.447 2.146 9.587.772 14.555-.557 5.956-1.591 10.059-2.458 12.706-.073 2.383 2.146.532 7.04-2.563 14.262-2.373 5.538-4.827 11.265-4.935 17.011-.161 8.574 6.831 14.586 13.594 20.402 4.711 4.05 9.582 8.239 10.993 12.624 2.146 6.667.062 14.706-1.371 18.905-1.6 4.686-.853 9.864 1.997 13.853a7.245 7.245 0 0 1-.051 8.485c-4.747 6.521-10.405 16.514-10.405 27.091 0 9.517 4.254 16.178 8.759 23.23 3.949 6.184 8.034 12.579 10.518 22.201 1.755 6.797 1.29 12.285.842 17.592-.468 5.519-.908 10.731 1.372 16.171 2.732 6.518 8.899 8.721 13.854 10.492 3.403 1.216 6.342 2.266 7.158 4.144 1.376 3.163.276 7.013-.887 11.089-.892 3.126-1.814 6.359-1.641 9.568.462 8.496 5.874 18.194 19.678 19.936.887.112 1.751.164 2.597.164 6.432 0 11.722-3.017 16.454-5.716 3.992-2.277 7.431-4.239 10.687-3.992 2.725.212 5.356.93 8.144 1.689 6.248 1.703 13.33 3.633 21.222-1.044 10.097-5.986 13.2-21.637 15.938-35.445 1.248-6.295 3.135-15.809 5.104-17.068 2.394-1.531 5.136-2.234 8.038-2.979 5.494-1.409 12.33-3.163 15.61-11.709 2.449-6.382-.035-11.921-2.227-16.808-2.41-5.374-3.658-8.601-1.29-12.443 2.801-4.545 8.938-7.846 15.437-11.341 7.103-3.82 14.448-7.771 18.519-14.095 7.858-12.208 7.719-35.57 4.178-45.666-1.237-3.528-3.563-6.413-5.813-9.203-4.39-5.444-8.181-10.146-4.805-19.538 2.673-7.432 15.418-19.514 27.743-31.198 14.006-13.276 28.487-27.005 35.102-39.348 5.367-10.014 9.179-22.414 11.33-36.854.767-5.157-1.213-10.152-5.298-13.365zm-2.616 12.184c-1.386 9.3-4.327 22.793-10.469 34.254-6.004 11.205-20.01 24.481-33.555 37.321-14.193 13.455-26.451 25.075-29.767 34.298-4.897 13.621 1.462 21.507 6.104 27.266 1.908 2.367 3.711 4.602 4.492 6.829 3.001 8.557 2.692 29.294-3.355 38.688-2.953 4.586-9.373 8.04-15.582 11.379-7.143 3.842-14.528 7.815-18.457 14.189-4.705 7.635-1.652 14.443.801 19.914 2.056 4.583 3.254 7.55 2.058 10.668-1.72 4.481-4.656 5.422-10.129 6.826-3.228.828-6.887 1.767-10.361 3.989-4.843 3.097-6.519 11.55-8.641 22.251-2.293 11.564-5.146 25.956-12.171 30.12-4.976 2.95-9.416 1.74-15.038.208-3.022-.824-6.147-1.676-9.626-1.946-5.708-.446-10.564 2.333-15.271 5.019-4.682 2.67-9.098 5.197-14.085 4.564-10.919-1.378-12.513-9.154-12.691-12.433-.102-1.869.602-4.332 1.346-6.938 1.358-4.76 3.049-10.684.529-16.476-2.197-5.055-7.3-6.878-11.802-8.486-4.854-1.734-7.893-3.007-9.169-6.052-1.521-3.629-1.193-7.501-.779-12.404.458-5.414 1.028-12.151-1.066-20.266-2.802-10.855-7.435-18.108-11.521-24.508-4.191-6.562-7.501-11.744-7.501-18.924 0-8.425 4.825-16.822 8.872-22.382a15.234 15.234 0 0 0 .094-17.844c-1.354-1.895-1.704-4.37-.937-6.619 2.142-6.274 4.125-15.52 1.416-23.939-2.102-6.531-7.842-11.466-13.393-16.239-5.606-4.821-10.901-9.375-10.812-14.186.078-4.182 2.22-9.178 4.29-14.01 3.459-8.071 7.38-17.22.563-23.358-2.958-2.664-6.324-3.536-9.723-3.536-3.578 0-7.192.967-10.403 1.826-3.559.952-7.239 1.935-9.012 1.08-1.791-.864-2.34-2.31-3.315-5.237-1.204-3.61-2.852-8.555-9.121-11.159-6.678-2.775-14.783 2.165-23.362 7.395-5.656 3.448-11.505 7.014-15.523 7.338-3.426.278-3.866-.345-5.347-2.399-1.517-2.104-3.808-5.282-9.306-6.623-6.197-1.508-10.353 2.416-13.688 5.57-3.826 3.618-6.409 5.774-11.092 4.594-4.051-1.022-15.766-12.323-30.318-31.941C15.738 178.41 8 163.614 8 159.509c0-6.327 2.483-10.009 5.111-13.907 2.119-3.142 4.31-6.391 5.193-10.85 1.189-6.006-.595-10.898-2.169-15.215-1.157-3.174-2.25-6.172-2.25-9.562 0-7.152 16.582-35.124 22.762-40.024 2.55-2.022 6.989-3.193 11.283-4.325 5.403-1.424 10.989-2.897 14.885-6.367 4.587-4.084 5.617-9.801 6.614-15.329.658-3.647 1.279-7.091 2.848-10.072 4.087-7.769 15.255-17.164 24.894-20.943 5.289-2.074 35.044-3.911 79.597-4.914 2.058-.062 3.943.819 5.245 2.374a6.758 6.758 0 0 1 1.44 5.709c-1.918 9.534-1.051 15.918 2.653 19.516 5.555 5.398 12.662 4.26 18.371 3.344 3.047-.489 5.929-.951 8.338-.539 2.281.389 4.438 2.904 6.721 5.566 3.51 4.094 7.879 9.189 15.213 9.189 7.691 0 11.114-5.238 13.614-9.063 1.791-2.741 3.339-5.109 6.085-6.099 12.13-4.376 57.66-1.639 66.001 5.392 4.839 4.08 3.765 9.924 1.573 18.374-.888 3.424-1.727 6.657-1.727 9.633 0 8.474 4.597 24.058 11.799 29.189 2.71 1.931 5.608 2.647 8.166 3.279 3.395.839 5.396 1.42 7.028 3.602 1.19 1.589 2.346 6.637 2.02 16.038a13.648 13.648 0 0 0 6.816 12.305 5.706 5.706 0 0 1 2.785 4.181l.492 3.796c1.032 7.94 7.027 14.19 14.918 15.552 3.919.676 7.083 3.543 8.062 7.304 1.756 6.756 5.573 15.739 13.781 20.171 6.388 3.449 16.848 2.264 31.092-3.523 2.149-.872 4.51-.544 6.318.877 1.799 1.414 2.67 3.618 2.331 5.896zM429.642 351.513c-4.141-1.328-8.612-.245-11.671 2.828-4.425 4.448-10.134 7.978-16.967 10.492-8.148 2.998-13.672 10.757-14.073 19.767-.203 4.575-1.375 8.311-3.582 11.42-3.968 5.59-5.118 12.668-3.076 18.933 1.347 4.134 1.927 7.883 1.724 11.144-.252 4.026 1.238 8.003 4.088 10.913a14.675 14.675 0 0 0 11.074 4.39c5.927-.248 10.852-1.721 14.64-4.379 10.777-7.567 26.375-42.372 26.918-60.066.155-5.067-.244-10.554-1.188-16.306a11.513 11.513 0 0 0-7.887-9.136zm1.078 25.195c-.492 16.062-15.426 48.082-23.519 53.763-2.514 1.764-6.005 2.751-10.377 2.934a6.629 6.629 0 0 1-5.025-1.996c-1.285-1.312-1.931-3.022-1.818-4.816v-.001c.27-4.332-.418-8.951-2.103-14.119-1.279-3.926-.552-8.236 1.994-11.823 3.081-4.341 4.78-9.622 5.051-15.695.258-5.781 3.729-10.732 8.843-12.614 7.936-2.919 14.623-7.077 19.876-12.356.811-.814 1.701-1.031 2.419-1.031.484 0 .89.098 1.139.178 1.305.418 2.215 1.468 2.435 2.809.858 5.245 1.223 10.214 1.085 14.767z" fill="#594d43" class="fill-3a322b"></path></svg>