<svg id="Layer_1" version="1.1" viewBox="0 0 64 64" xml:space="preserve" xmlns="http://www.w3.org/2000/svg" enable-background="new 0 0 64 64"><path d="M53.161 16.8a.275.275 0 0 0-.137-.046l-1.103-.064-2.475-.02-.922.017-.578-1.05a.278.278 0 0 0-.184-.137l-1.752-.382-.766-.743a.281.281 0 0 0-.166-.077l-1.463-.141-1.8-1.019-.957-1.079a.284.284 0 0 0-.094-.07l-.658-.293a.278.278 0 0 0-.233.004l-1.055.505-.217-.506-.164-1.113a.279.279 0 0 0-.099-.174l-2.981-2.436a.313.313 0 0 0-.056-.035l-1.208-.579-.075-1.598a.276.276 0 0 0-.378-.245l-1.912.752-.613-.056a.293.293 0 0 0-.192.054l-1.316.986a.277.277 0 0 0-.095.314l.414 1.189-.076 1.866-1.016 1.177-.74.963h-2.392a.279.279 0 0 0-.147.042l-2.077 1.302a.276.276 0 0 0-.08.392l.583.852-.587.54h-2.819l-1.04-.42a.267.267 0 0 0-.113-.02l-.424.013-.189-.938-.37-1.092a.277.277 0 0 0-.39-.157c-.475.247-1.053.533-1.106.557h-.72a.277.277 0 0 0-.202.087l-.493.525a.278.278 0 0 0-.073.224l.144 1.135a.277.277 0 0 0 .158.216l.992.46.3 2.335.278.85-3.892.173a.293.293 0 0 0-.11.028l-.628.312-.699-.408-1.288-1.377a.28.28 0 0 0-.294-.073l-1.772.62-1.318.265-1.615.613-1.583 1.008a.277.277 0 0 0-.097.36l.41.798c.04.079.116.134.203.148l1.374.219-.19.513-.728.29a.278.278 0 0 0-.056.485l1.12.782.015.407a.28.28 0 0 0 .316.265l1.93-.277 1.158 1.028c.05.044.113.068.178.07 1.389.03 1.865.025 2.053 0 .133.03.605.203 1.033.371l.285 1.026.102.777a.279.279 0 0 0 .351.23l1.161-.332-.053.73.073 1.533-.385.175a.278.278 0 0 0-.16.292l.083.567a.277.277 0 0 0 .141.203l1.073.584 1.213.946c.026.02.055.035.086.045l1.896.607-.091 2.082-.386.788a.278.278 0 0 0 .16.384l1.797.606.911 3.047-1.109-.44-.448-1.049a.276.276 0 0 0-.204-.163l-.678-.126a.28.28 0 0 0-.313.18l-.514 1.47a.273.273 0 0 0-.011.142c.135.745.355 1.966.366 2.05 0 .116 0 .19.513.584l-.375 2.634c-.008.02-.818 2.012-1.706 3.1a.277.277 0 0 0 .033.384l1.022.889.076 1.353c.008.14.12.252.261.26.778.045 2.893.376 3.342 1.352a.279.279 0 0 0 .383.128l.761-.413.678.865c.05.064.125.102.206.106l1.933.084a.228.228 0 0 0 .075-.007l2.57-.594 2.1.49 1.95.405h1.503l1.795.815a.276.276 0 0 0 .265-.02.276.276 0 0 0 .127-.233v-2.785l3.237-3.366c.677.213 1.382.445 1.603.535.104.113.367.288 1.038.671a.28.28 0 0 0 .262.007l1.32-.664 2.473 1.562 1.686.924c.054.03.116.042.178.03l1.028-.168c.08-.013.149-.06.19-.128l.822-1.338 4.06-1.98a.277.277 0 0 0 .14-.342l-.53-1.485.275-1.566a.277.277 0 0 0-.205-.316l-2.17-.55-.442-1.515-.185-1.134a.273.273 0 0 0-.084-.157l-1.042-.979.663-.536h1.218a.278.278 0 0 0 .276-.252l.144-1.554a.277.277 0 0 0-.11-.248l-1.209-.897.244-.962.355-.344a.277.277 0 0 0 .034-.356l-1.912-2.772a.277.277 0 0 0-.222-.12l-.966-.02a.26.26 0 0 0-.2.079.276.276 0 0 0-.083.198l.005 1.437-.094.48-1.385-.179-.311-.62.847-1.165a.276.276 0 0 0 .052-.141l.134-1.654 3.717-2.592a.278.278 0 0 0 .04-.42l-1.14-1.182.985-.917.984.881c.078.07.185.09.282.053l2.016-.756a.277.277 0 0 0 .045-.497l-1.515-.908-.035-1.125.834-1.738.36-1.508 1.104-1.724a.277.277 0 0 0-.08-.38l-1.275-.84zM60 52.888l-.155-3.622a.277.277 0 0 0-.178-.247l-.74-.283a.252.252 0 0 0-.146-.014l-1.028.178a.277.277 0 0 0-.23.292c.023.34.046.486.067.56 0 .114-.033.493-.07.855l-.556.228-1.367.945a.276.276 0 0 0-.12.212l-.078 1.321c-.413.738-.41.85-.3.991.053.075.555.889.586.943.035.085.382 1.052.481 1.327l-.139.68a.278.278 0 0 0 .109.28c1.327.966 1.332.966 1.448.966.073 0 .088 0 1.189-.474a.277.277 0 0 0 .16-.188l.514-2.057a.274.274 0 0 0 .008-.087l-.089-1.236.612-1.45a.283.283 0 0 0 .022-.12z" fill="#e8af54" class="fill-58595b"></path></svg>