<svg viewBox="0 0 512 512" xml:space="preserve" xmlns="http://www.w3.org/2000/svg" enable-background="new 0 0 512 512"><path d="M373.7 5.6c3.8-1.9 7.7-3.8 11.6-5.6 4.9 2.5 9.6 5.3 14.2 8.4 4 2.7 3.8 6.9 5 11.4 1.7 6.9 3.7 8.8-2.6 13.1-3.4 2.3-6.8 4.4-10.3 6.4-4.5 2.6-2.1 9.4-1.4 14.2.3 2.1.7 4.2 1.2 6.3-2 2.4-4 4.8-6 7.3-3.3 4.1-6.7 8.1-10.5 11.8-2.8-3.5-5.7-8-10.6-8.6-6.3-.7-12.3-.6-18.7-2.2-6.3-1.6-12.5-3.6-18.9-4.9-2.9-.6-6.6.5-6.3-3 .3-3 .6-6 .8-9-5.9 9-14.7 15.5-24.2 20.3-4-3-9.1-9.5-14-7.9-6.3 2.1-8.1 2.2-10.2 8.4-1.3 3.8-8.8 6.7-12.4 8.4-4.7-.8-9-3-13.8-3.4-4.2-.3-7.5 1.5-9.7 5.1 4.2 4.5 8.7 8.6 13.1 12.9l-6.9 4.2c4 2.8 8.1 5.4 12.1 8.1-.4-2.2-.9-4.3-1.3-6.5 9 6.5 18.2 12.9 25.4 21.5-6 6.3-10-1.5-13.7-5.8-4.2-4.9-18.6-3.2-16.5-11-4.5 2.1-8.9 4.3-13.4 6.4 2.3 2.2 4.6 4.5 6.9 6.7 2.3 2.2 5.3 1.9 7.9 3.9 5.5 4.1 5.7 12 3.4 17.9-6.1-4.8-10.6-11.2-14.4-17.8-2.9-5.1-3.8-5.4-9.7-6.6-4.6-.9-9.3-1.5-14-.8 2.9 13.4 17.3 17.3 25.2 27-6.4-1.4-12.6-3.6-18.8-5.6-5.8-1.9-5.8-13.2-7.4-18.9-10.2-5.3-21.8-9.8-27.5-20.6 5.9-.9 10.2-4.3 7.7-10.6-5.4 2.2-10.9 4.6-15.1 8.6-3.4 3.2-3.4 11.6-4.7 16.3-1.5 5.4-2.9 11.3-1 16.8 2.2 6.6 7.9 12.5 11.5 18.4 3.3 5.3 6.2 10.9 8.2 16.8 4.8 4.9 9.7 9.8 14 15.2 3.7 4.6 6.9 9.6 9.1 15.1 1.8 4.4-1 3.8-4.6 5.4-3.8 1.7-7.5 3.5-11.3 5.1-.4-1.8-.9-3.5-1.3-5.3l9-.9c.5-3.9-.5-7.7-3.5-10.3-2.3-2-5.2-3.1-8-3.8-4.3-1.1-8.9 5.4-12 8.2 3.1 2.2 5.8 4.9 8.1 7.8 2.8 3.5 8 8.3 3.7 11.3-8.4 6-18.6 8.9-28.8 6.7 9.8 4.1 19.9 7.4 30.1 10.2 3 7.3 10.6 7.5 17.4 6.9-.3 4.7-2.5 9.3 2.7 10.4 5.5 1.1 11.1 1.9 16.7 2.4-11.8-11.4-22.3-26.7-39.4-30.1 3.8-4.1 8.2-7.6 13.1-10.2 6.3-3.3 8.8.3 12 6.2 1.3 2.4 2.3 5 2.7 7.8 2.5 1.2 5 2.6 7.4 4.1 5.6 3.2 11.4 6.6 17.8 8 4.3.9 10.1-1.1 13.3 2.6 2.9 3.3 5.5 7.4 5.1 11.5-.6 6.5.9 13.2 3.8 19 3.3 6.6 12.8 6 19.2 7.1-.5 2.1-1 4.3-1.4 6.4-1 4.3.2 6.7-4.7 6.1-5.3-.6-10.6-.9-16-.8.2-3.6 3.4-2.3 6.6-2.4-5.4-6.9-10-14.3-14.7-21.8-3.4-5.5-4.1-5.4-10.5-6.1-5.8-.6-11.6-1.4-17.5-1.7 5.2 3.8 11.5 5.5 17.3 8 2.5 1.1 4.9 2.3 7.2 3.9 3.6 2.6.3 6.9-.2 10.9-.9 7.3.4 14.6 2.8 21.5 1.1 3 5.2 8 1.9 9.6-2.8 1.4-5.7 2.8-8.5 4.2l-2.1-8.4c-.9-3.4-6.4-4.7-9.4-6.1-3.1-3.8-6.3-7.5-9.6-11.1-3.7 2.9-7.3 5.7-11.1 8.5l3.3-10.5c-9.6 2.9-19.3 5.8-28.9 8.6 2.6 1.1 5.2 2.1 7.8 3.1 4.3 1.7 2.8 6 3 10.2.4 7.6 3.6 8.5 9.5 12.8.8-4.7 1.6-9.5 2.3-14.2-.7-3.3.5-4.5 3.5-3.7 3-.2 6-.4 9.1-.6-1.7 3.2-3.5 6.3-5.2 9.5-.5-2.3-1-4.6-1.5-7-2.4 2.4-6 4.4-5.4 8 .5 3.4 1 6.8 1.5 10.1 2.4-.5 4.7-1.1 7-1.7-.3 2.6-.6 5.3-1 7.9-5.7.6-11.4 1.7-16.6 4 2.9.9 5.7 1.6 8.6 2.5-6.8-.7-14.5-.4-13 8.6-3.4-2-2.2-8.6-6.8-11.6 2.5-1.8 4.9-3.6 7.5-5.3-8.1-3.9-16.6-6.8-25.2-9.4.5 16.7 12.1 30.8 16.9 46.3 1.4 4.5 3 8.9 4.7 13.2-2.3 2.1-3.8 4.8-3.4 8 1 6.8 7.6 11.3 10.1 17.4-8-2.7-12.2-4.3-17.2-11.3-4.9-6.8-9.1-14.1-15-20.1-4 5.4-7.2 11.2-10.4 17.1-2.4 4.5-.5 9.2.3 14.1-3.9-2.7-9.4-4.1-8-8.9.9-3.4.7-6.9-.4-10.2-2.4-7.4-8.3-12.7-11.7-19.5-2.5-5.1-7.1-9.6-11.9-3.7-4.7 5.8-1.1 14.3-3.5 20.9-3.8-3.3-7.6-6.5-11.6-9.5-.9-5.8-3.8-11-6.5-16.1-2.5-4.6-3.5-7.5-.1-12 3.8-5 7.6-5.9 5.3-12.6-3.2-9.3-10-17.2-18.7-21.7-3.8-1.9-2.1-6.1-5.2-9.5-3.1-3.3-7.5-4.9-11.5-6.9 8.3-6.5 18.2-13 20.1-24.2 4.2 1.2 8.5 2.2 12.9 3 4.5-3.7 8.7-7.8 13.2-11.6 4.2-3.5 6.8.5 11 2.9 4.7 2.7 9.5 5.2 14.5 7.3 7.7 3.2 17.1 4 23.9 9 5.6 4.1 10.5 10 17.9 10.7-2.1-3.5-4.3-6.9-6.5-10.3 6.9.9 13.9 1.4 20.9 1.8-1.1-7.5-7.5-10-14.2-11.2-3.3-.6-6.7-.9-10-1.8-4-1-7.4-7.9-9.9-11.2l-5.1 6c-2.6-3.5-5-7.2-7.6-10.7-1.9 13.3-16.9 5.7-24.6 3.3-7.2-2.2-17.3 1.9-24.4 3.8-6.7 1.8-6.7 2.4-10.4-3.5-1.7-2.6-3.4-6.8-5.8-8.8 2.3 8.8-6.2 13.3-13.8 12.2 1.3-3.9 2.2-8.5-.1-12.2-1.5-2.5-3.7-2.6-4-5.7l-.6-6.6c-2.6 2.4-5.2 4.8-7.9 7.3 2.1-4.5 3.9-11.6.6-16-2-2.8-5.6-3.1-8.8-2.6-.4 3.5-.7 7.1-1.1 10.6 4.2-.3 4.8-1.2 5.6 3.1-5.4.1-10.8.4-16.1.5 2.8-7.9 4.5-20.2 15.8-18.4-2.4-5.2-4.8-10.3-7.4-15.4l9.3 3.3c-.8 1.9-1.6 3.8-2.3 5.7 6.7-.3 13.7.5 18.6 5.6 1.1-3.8 2.2-7.7 3.3-11.5-3.8-.4-7.7-.4-11.3-1.6-3.3-1.1-5.6-4.6-9.2-4.5-3.2.1-6.1 1.9-9.4 2.1-3-4.3-6-8.7-8.9-13.2-2.3-3.6-4-3.1-7.9-3.8-3.5-.6-3.8-7.2-4.8-10.4-3.1-9.4-6.6-15.8-13.1-23.1 4.2 1.9 10 6.8 13.1 2.8l5.4-6.9c1.6-.3 4.1-.9 4.7-2.8.8-2.6-1.8-5.8-3.1-7.8-2.1-3.3-2.6-2.6.9-5.7 2.9-2.6 4.4-4.9 8.4-5.1 7-.5 8.1-.4 10.5-7.1 2.2-6.2 4.5-12.5 7-18.6 1.8-4.4 5.3-4.2 9.6-5.5 2-3.8 7-6.9 5.7-11.8-2-3.6-8.6-10.3-4.9-13.1 4-3 8.9-4.3 13.8-4.7 9.2-.7 18.8 1.2 27.8-1.5 5-1.5 7.4-4.1 10.3-8.2 1.7-2.5 3.5-5 5.1-7.5 3.4-.5 6.8-1.2 10.3-1.5 8.2-.9 32.7 7.5 34.9-4.8 1-5.7 1.1-8.7 7.3-8.6 4.9.1 9.9 1.1 14.9.3 4.9-.8 7.2-4.5 12-4.5 6.9.1 13.7-.2 20.5-1.3 5.6-.8 11.2-2.1 16.5-4 4-1.4 3.7-4.4 6.9-6 6 0 12.8 1.5 18.5 0 4.1-1.1 5.4-3 7.6 1.2 1.9 3.6 2.4 5.3 6 7.3 2 1.1 4 2.2 6.1 3.3 2.4-1 5.1-1.5 7.8-1.2 5.1.6 9.5 3.6 13.5 6.6 4 3 6.6 6.7 11.4 4.7 6-2.5 12.4-4 18.9-4.8 8-1 22.8 2 26.8-7 3.3-6.7-.4-15.9-4.9-21.3" fill="#e8af54" class="fill-34404e"></path><path d="M282.7 85.3c2.3-3.4 4.9-6.6 7.8-9.6 3.2-3.4 5.2-.5 8.8 1.6.5 4.4 3.1 10.2-1.6 11.9-6.8 2.3-9-.3-15-3.9M339.9 97.8c3.9-5.5 10.4-2.7 14 1.5-1.9 7.2-16.2 5.6-14-1.5zM315.5 133.6c8.2.4 17.3 3.8 24.4-1.9-3.8 5.9-6.4 12.7-7.1 19.7-4.9-5.4-11.9-18.5-7.5-2-3.2-1.3-6.3-2.7-9.5-3.9-.1-3.9-.2-7.9-.3-11.9M2.3 146.9c5.6-1 11.1-2.1 16.7-3.1.6 2.1.4 4.4-.8 6.3-2.7 4.4-3 3.6-1.5 9.3 1.1 4.3 1.4 8.2 5.1 10.8 3.4 2.3 6.9 4.5 10.1 7.1-17.2.4-21.2-19.4-29.6-30.4M310.9 167.5c4.6-1.8 6.2-.3 4.6 4.6-4.6 1.8-6.1.3-4.6-4.6zM384.1 179.4c5.7-1 9.8 2.1 11.9 7.2 2.7 6.6 8.8 12.6 12.8 18.6-8.8 10.3-22.1 3.7-32.1-.9 4.2-3.8 8.4-7.4 12.8-11-5-1.2-8.5 2.6-11.6 6-3.8 4.2-7.8 2.8-12.2-.7-5.4-4.2-2.1-8.7 3-10.3 5.7-1.9 11.9-3.5 15.4-8.9M29.3 187.6c4.8-1 6.4.7 4.9 5.2-4.8 1-6.4-.7-4.9-5.2zM221.4 194c4.8-1.7 6.2-.1 4.1 4.8-4.7 1.6-6.1 0-4.1-4.8zM231.8 194.8c4.6-2.2 12.7 3.6 10.2 8.9-4.8 3.7-12.2-4.1-10.2-8.9zM282.5 210c1.6 1.5 15.8 13.2 12.8 16.7-3.7 4.2-8.7-3.3-11.2-5.6-3.7-3.4-2.1-6.4-1.6-11.1M343.3 240.7c2.5-5.2 5.2-5.3 8.1-.3-2.4 4.9-5.1 5-8.1.3zM360.6 242c4.2-1.4 8.5-2.6 12.7-3.9 5.4 2.7 10.9 5.2 16.1 8.1-3-1.1-6-2.3-9-3.4.7 5.6 1.8 11.5.8 17.1-.7 3.7-4.9 12.5-9.9 11.5-1.9-.4-3.4-2.2-4.5-3.7-3.2-4.1-.9-4.6 2.8-8 6.5-5.8-4.6-13.4-9-17.7M57.8 245.5c4.9-.2 7.2 7.9 6 11.9-4.9.2-8.8-8-6-11.9z" fill="#e8af54" class="fill-34404e"></path><path d="M52.7 244.6c2.2 5.4 2.5 12.7 6.6 16.7 4.4 4.3 8.2 9.2 11 14.7-5.3-.9-10.5-2.1-15.8-3-2.1-.4-4.2-.7-6.3-1-.5-3.7-.9-7.3-1.4-11-2 3.3-4.1 6.6-6.1 9.9.4-5.7 1.5-11.3 2.7-16.9 2.5 1.2 5 2.3 7.6 3.5.6-4.3 1.1-8.6 1.7-12.9M294.2 287.6c7.6-5.2 14.9 1.6 17.8 8.6 1.3 3.1.7 10.2 3.3 11.3 3.7 1.6 8 2.2 11.4 4.4 3.5 2.2 6.1 7.4.1 8-3.9.4-6.9-3.1-9.1-5.8-7.2-9.4-16.4-17.1-23.5-26.5M65.9 307.4c-4.6-6.1-13.5-13.2-7.7-21.5 6 4.5 12.2 8.7 18 13.3-3.5 2.6-6.9 5.4-10.3 8.2M405.2 305.6c5.9-13.5 22-7.5 32.9-5.7-4.4 4.2-9.7 7.3-14.7 10.6-5.2-4-11.6-6.4-18.2-4.9M386.1 310.1c3.3-1.8 6.7-3.5 10.1-5.2-3.4 11.1-15.6 13.4-25.2 16.4 2-6.9 7.4-12.7 15.1-11.2M273.4 319.8c-6.4-2.4-.1-16.1 5.8-11.4 2.1 4.3-1.3 10.4-5.8 11.4zM307.8 332c-5.4-2-2.2-12 3.1-11.6 5.8 2.3 3.3 12.7-3.1 11.6zM326.1 327c4.8-2.2 9.7-7.2 15.4-4.8-.9 3.8-4.3 5.2-7.7 6.2-4.3 1.1-5.6 2.9-7.7-1.4M277.9 325.5c4.9-4.6 8 5.2 4.1 8-4.9 4.6-7.5-5.3-4.1-8zM221.3 334.7c1-4.7 3.5-5.6 7.3-2.9-1 4.6-3.4 5.6-7.3 2.9zM284.2 343.4c4.3 2.2 4.3 4.5-.2 7-4.3-2.3-4.2-4.6.2-7zM334.9 352.3c3.8-3.2 7.7-6.3 11.6-9.4 3.4 4.2 5.1 5.1 3.6 10.2-1.1 4-2.3 8.6-6.9 10 1.9 1.5 3.9 3 5.8 4.5-6.9-1.5-6.3 0-9 6.6.8-3.3 1.6-6.6 2.5-9.9-2.7-4-5.2-8-7.6-12M419.2 341.2c3.6 1.4 6 4.4 7.8 7.7 2.5 4.6 7.5 7.4 11.6 10.7-3.1 1.2-6.1 2.3-9.2 3.4-.7-8.3-6.4-14.8-10.2-21.8M319.9 357.5c.3-6.7 6.1-8.6 11.8-9.5-1.1 4.4-2.2 8.8-3.5 13.2-6.1-2.6-6.9-2.3-12.7.8-.1-1.5-.1-3-.2-4.5h4.6M293.9 356.6c4.5-2.7 9.3 4.8 5.9 8.3-4.6 2.8-9.3-4.8-5.9-8.3zM357.4 375.7c7-4.8 13.6-10.6 21.8-13.4-5.8 6.5-12.2 13.8-21.8 13.4zM426.9 379.7c7.2-7.1 18.1-21.9 29.2-12.7-5.4 3-11.5 4.4-17 7.2-4.1 2.1-7.4 7.9-12.2 5.5M287.5 369c2.4 2.8 4.6 5.6 7 8.4-2.7 2.6-5.6-2.2-7.6-4-.1 3.3-.2 6.5-.2 9.8-4.7 1.2-9.6 1.4-14.4 2 2.8-7.6 14.4-7.3 15.2-16.2M329.9 375.4c4.5-3.8 12 4.1 9.2 8.8-4.8 3.5-11.7-4.1-9.2-8.8zM322 379.5c4.4 1.9 4.3 4-.4 6.5-4.4-1.9-4.2-4.1.4-6.5zM398.8 383.8c1.6 1.8 3.2 3.5 4.8 5.3-2.3-.1-4.6-.2-7-.3-.5 2.7-1.1 5.4-1.6 8.1-1.8-2.4-3.7-4.8-5.6-7.2 3.1-2 6.3-3.9 9.4-5.9M481.4 383.2c4.6-3.4 9.3 4.8 5 7.8-4.6 2.9-9.2-4.7-5-7.8zM331.5 401.3c4.5-2.5 9.4-7.8 12-1 1.8 4.6-1.1 8.8-5.1 11 .6-3.9 1.3-7.9 1.9-11.8-2.9.6-5.8 1.2-8.8 1.8M452.4 396.2c3.8-3.1 10.9 2.5 8.5 6.9-3.8 2.8-10.6-2.7-8.5-6.9zM477.7 419.3c6.3-12.1 18.6-20.7 32-22.8-4.1 16.1-13.6 36.8-30.3 43.3-.5-6.9-1.1-13.7-1.7-20.5M191.3 403.4c5.6 5.4 12.3 11.9 6.3 20-8.8-2.2-10.8-13-6.3-20zM442 473.9c-3.3-11.1 1.1-22.2 6.3-32-.1 5.9-3.8 14.5-1.6 19.4 1.3 2.8 2.6 5.7 3.9 8.6-2.9 1.3-5.8 2.6-8.6 4M237.3 456.9c6.3 0 5.3.8 5.6 7 .2 3.3-1 4.5 2.8 4.6 3.4.1 6.8-.1 10-1.1 2.9-.9 9.5-7.7 11.2-3.5 1.3 3.4-3.8 7.2-5.2 9.8 3-.4 6-.7 9-1.1.3 2.6.5 5.2.8 7.9 4.3-.3 8.7-.5 13-1.2 9.3-1.5 15.4-5 25.1-3 8.3 1.7 16.2 5 24.7 6 9.1 1 17.1-.7 26-2.1-.6 6.3-1.4 12.8.4 18.9 6.4-3.4 12.6-7 18.2-11.5 2 1.5 3.9 3 5.9 4.5 3-3.7 6.2-7.4 9.2-11.1-.4 4.5-.7 9-1 13.6-.3 5.1.3 6.4-4.1 8.9-7.2 4.1-19.1.9-27.5 1.5-20.4 1.6-40.4 7.2-61 6.9l-1.2-12c-4.5-.3-8.3 0-12.1-2.2-7.6-4.5-16.7-4.8-25.2-5.7-9.7-1.1-19.4-1.7-29.2-2.8-7.2-.8-6.7-1.9-5.8-8.5.8-5.8 1.6-11.6 2.2-17.5 2.9 3.1 5.9 6.3 8.8 9.4 0-5.2-.2-10.5-.6-15.7M428.6 479.1c-.7-4.6 1.3-6.2 6.2-4.8.6 4.5-1.5 6.1-6.2 4.8z" fill="#e8af54" class="fill-34404e"></path></svg>