<svg viewBox="0 0 100 100" xml:space="preserve" xmlns="http://www.w3.org/2000/svg"><path clip-rule="evenodd" d="M47.982 78.03c.533-.554-.681-.97-.571-.301.11.669.038.856.571.301zm-4.57-72.639c-.427.337.599-.218.623.367.024.584-.453.021-.354.703.098.68 2.155-.991 1.273-1.542-.881-.553-1.115.136-1.542.472zm11.262 83.4c.541.777.839.428 1.522.498 1.166.121.547-1.603-1.15-1.274-1.697.327-.712.291-.372.776zm-5.821 5.116c-.478.809-1.812 1.1-2.101 1.28-.288.18-1.192.13-1.312-.215-.12-.344-.121-.214-1.984-.452-1.863-.239 1.323-.479 1.687-.611.362-.133-.145-.052-.471-.411-.252-.274-.201-.091-.753-.049-1.215.089-2.234-1.372-3.268-2.848-1.032-1.476-.715-1.304-.915-2.258-.201-.955-.27-.791-.252-1.338.032-1.001.322-.543.27-.973-.064-.525-.97.435-1.121-.14-.15-.573.406-.972-.863-1.066-.007-.001-1.512-.311.179-1.093.524-.242.661.408 1.173.339s-.115-.669-.06-1.311c.058-.64.347-.169.466-.933s-.38-.124-.621-.628c-.24-.504.543-4.288-.718-3.216-1.261 1.071-.896-2.185-.843-2.765s-.894-2.156-.992-2.803c-.097-.646-.123 1.333.415-1.183s-.095-3.315-.143-3.993c-.049-.678 1.465.078.367-3.132-1.097-3.209.033-6.93-.42-9.619-.453-2.69-.274-.925-.085-2.475s-1.144-4.581-.879-5.793-4.724-2.406-6.396-3.022c-1.671-.617-1.966-2.563-3.474-3.906-1.509-1.344-2.408-3.404-3.457-4.854-1.049-1.449-2.629-1.737-3.445-2.503-.816-.766.357-.457-.118-1.293-.476-.837.076-2.598.701-2.48.625.118 1.081-2.119.42-1.984-.66.135.299.527-.529.882-.829.355-1.353-1.588-.761-2.288.591-.701-.803-.654.598-2.506 1.402-1.852 1.217-.993 1.617-1.816.399-.822 2.304-2.25 1.863-2.935-.44-.684-.439-2.473-.785-3.41-.346-.938-.902-.78-.245-1.494 2.351-2.553 2.441-4.691 3.869-5.367 1.436-.679 2.622-1.856 3.493-2.195.872-.339.438 2.605.49 2.735.051.13 1.737.159 1.492-.82-.243-.979-.159-1.637.263-1.858.422-.222.208.38.785.694.575.314 1.465-.102 1.886.121.418.223-.247.735.128.952.374.216 1.212.098 1.519-.488.309-.586 3.688 1.048 4.354-.33.004-.008.516-1.723 2.79-.358.554.333-1.304-.182-1.119.541.185.722 2.409.378 2.876.9s-.684.955-.476 1.324c.208.368-.218-.085.93-.188 1.147-.103 1.724-.432 3.109 1.373s1.038 1.19 3.431 1.708c2.393.519 3.066-.608 4.836.566 1.77 1.173 1.8.874 2.743 3.058.944 2.185.856.762 1.525 1.6.668.837-2.97 3.754-3.075 4.331-.044.242 3.408-.752 4.213.405.546.786-.262-2.915 3.82-1.436s2.168 2.258 2.622 2.95c.453.694 1.076-1.49 2.757-.739 1.68.75 3.205-.978 6.202 1.959 2.998 2.938 3.859.387 4.528 4.099.667 3.712-1.768 4.405-2.794 5.438s-1.072 2.458-1.671 2.722c-.598.264-1.417-.671-.996 3.301.42 3.972-.979 3.428-1.085 4.604-.105 1.175-.112 1.312-.867 2.467-.753 1.158-1.399 2.765-2.15 3.384-.752.621-2.315-.341-3.134-.004-.818.338 1.106-.391-.617.583s-2.146.813-3.932 2.526c-1.785 1.714-.353 2.819-.601 3.953-.247 1.133-.904.966-1.367 1.762-.465.794-.271 1.074-1.078 2.217-.806 1.144-1.393.905-2.06 2.643-.668 1.737-3.249 3.026-3.111 3.494.138.469-1.347 1.895-2.076 3.248-.73 1.354-4.141 1.51-5.258 1.93-1.117.421 1.055 1.019.317 2.667-.736 1.648-3.341-.797-2.678 1.589.226.81.963 1.692.774 1.821-.568.389-.379 1.95-.872 2.483-.494.532.066-.474-1.009.697-1.076 1.171.781 1.37 1.502 2.397.722 1.027-1.676 3.094-1.475 4.937.202 1.843 3.189 2.154.196 1.978-2.992-.176-1.253.047-.668.356.584.312 1.201 1.293 2.228 1.874 1.029.584 2.125.047 1.746.691z" fill-rule="evenodd" fill="#e8af54" class="fill-000000"></path></svg>