<svg data-name="Layer 1" viewBox="0 0 100 100" xmlns="http://www.w3.org/2000/svg"><path d="M77.74 89.18a.79.79 0 0 0-.62.3.8.8 0 0 1-.71.17.54.54 0 0 0-.6.36 1.14 1.14 0 0 1-.65.71c-.2.09-.16.19 0 .31l.21.22c.09.1.18.24.07.34a1.58 1.58 0 0 1-.86.46c-.16 0-.21-.1-.23-.24s-.16-.26-.35-.22a.57.57 0 0 1-.51 0 2 2 0 0 0-1.53-.26h-.68a.59.59 0 0 1-.64-.42.87.87 0 0 0-.66-.57 3 3 0 0 0-1.52-.23.76.76 0 0 1-.54-.14c-.22-.12-.31-.28-.1-.48s0-.16 0-.28c-.12-.56-.62-.66-1-.95a4.85 4.85 0 0 0-1.21-.84.44.44 0 0 1-.3-.44.32.32 0 0 0-.21-.33c-.14 0-.18.11-.27.18a1.28 1.28 0 0 1-1.08.14 17.51 17.51 0 0 0-2.8-.53 2.4 2.4 0 0 1-1.54-.55 3 3 0 0 0-1.19-.76c-.21 0-.23-.28-.39-.39a4.73 4.73 0 0 0-1.83-.69c-.14 0-.23.06-.34.14a2.51 2.51 0 0 1-1.79.59 6.92 6.92 0 0 1-1.73-.41 13.08 13.08 0 0 0-1.52-.55 6.93 6.93 0 0 1-3-1.36c-.26-.24-.6-.15-.9-.24a2.64 2.64 0 0 1-1.5-.9 1.73 1.73 0 0 0-.69-.45 2.4 2.4 0 0 1-1.26-1.21c-.09-.19-.19-.41.11-.54 0 0 .08-.06.07-.07-.17-.47.4-1-.07-1.43a.57.57 0 0 1-.14-.42 1.21 1.21 0 0 0-.5-1c-.5-.41-.76-1-1.22-1.49a3.94 3.94 0 0 0-.47-.44.86.86 0 0 1-.44-.63.34.34 0 0 0-.25-.31 3.86 3.86 0 0 1-.79-.52.54.54 0 0 1-.18-.74.41.41 0 0 0-.1-.55c-.26-.19-.43-.46-.69-.65a.92.92 0 0 1-.4-.74c0-.11 0-.23-.12-.25-.57-.14-.74-.66-1.06-1-.16-.2-.28-.44-.62-.4s-.17-.19-.11-.3a.73.73 0 0 0 0-.79 6.61 6.61 0 0 1-.29-1.48 1.67 1.67 0 0 0-1-1.06 1.69 1.69 0 0 1-.31-.13c-.12-.06-.23-.12-.35 0a.35.35 0 0 0-.09.35 12.09 12.09 0 0 1 .12 1.21 2.17 2.17 0 0 0 .53 1.11 18 18 0 0 0 1 1.57.27.27 0 0 1 0 .14 3 3 0 0 0 .89 1.8 5.13 5.13 0 0 1 .47 1.24 3.25 3.25 0 0 0 .45 1.07c.08.1 0 .22 0 .33-.11.38 0 .53.37.58a.47.47 0 0 1 .36.24c.12.23.23.46.34.68a.43.43 0 0 1-.07.53c-.26.27-.41.24-.5-.12a1.42 1.42 0 0 0-.49-.69 4.13 4.13 0 0 0-1.23-1c-.35-.15-.26-.61-.25-1s.1-.82-.22-1.15a5.14 5.14 0 0 0-1.2-1.07 2.36 2.36 0 0 1-1.2-1.17c0-.08-.11-.15 0-.24s.14 0 .21 0a.38.38 0 0 0 .53-.15.7.7 0 0 0 .07-.72 3.82 3.82 0 0 0-.82-1A1.73 1.73 0 0 1 33 66a4.66 4.66 0 0 0-.27-1 14.36 14.36 0 0 1-.65-2.68 1.36 1.36 0 0 0-.7-.94 5.81 5.81 0 0 1-.75-.66 2.38 2.38 0 0 0-1-.65c-.17 0-.34-.12-.33-.32a4.19 4.19 0 0 0-.65-2 .66.66 0 0 1 0-.68.28.28 0 0 0-.07-.43 1 1 0 0 1-.34-.78 5.19 5.19 0 0 0-.34-1.41 1.81 1.81 0 0 1-.15-1.17 1.55 1.55 0 0 0-.07-.9.84.84 0 0 1 .19-.9 1.54 1.54 0 0 0 .35-1.06 4.16 4.16 0 0 1 .69-2.42 13.7 13.7 0 0 0 .77-1.88 7 7 0 0 0 .5-3c0-.2-.06-.43.24-.53s.07-.16 0-.23A7.46 7.46 0 0 1 29 40a1.9 1.9 0 0 1-.34-1c0-.2.09-.32.3-.29s.37-.18.27-.37a1.93 1.93 0 0 1 0-1c0-.12.07-.26 0-.34-.22-.4-.18-.89-.47-1.27a1.22 1.22 0 0 1-.2-1.12c.07-.24.34-.35.43-.6a.89.89 0 0 0-.3-.89c-.17-.11-.15-.3-.12-.46a.54.54 0 0 0-.14-.47 1.16 1.16 0 0 1-.16.76c0 .06-.13.16-.15.15s-.27-.28-.5-.21c0-.4-.33-.78 0-1.19.13-.16.33-.4 0-.66s.15-.74.35-.82a.63.63 0 0 1 .22-.07c.5 0 .51-.32.48-.75a1.29 1.29 0 0 1-.75.58c-.24.07-.29.34-.42.53s-.07.18-.19.14-.09-.11-.09-.19a10.51 10.51 0 0 1 .07-1.79 1.24 1.24 0 0 0-.14-1.13.79.79 0 0 1-.08-.44 1.24 1.24 0 0 0-.28-.92.5.5 0 0 1-.12-.56c.06-.14 0-.22-.12-.28a2.83 2.83 0 0 1-.77-.88c-.05-.09-.11-.21-.19-.23-.78-.29-.84-1.17-1.4-1.64-.1-.09 0-.18 0-.28.07-.3.08-.56-.32-.65-.17 0-.24-.06-.33.11a.68.68 0 0 1-.91.31 2.27 2.27 0 0 0-1.39-.25c-.21 0-.41 0-.52-.23s.09-.32.22-.43a2.3 2.3 0 0 1 2.06-.84.11.11 0 0 0 .14-.08c0-.14-.06-.2-.16-.21a1.66 1.66 0 0 0-1.16 0 3.36 3.36 0 0 1-1.5.34c-.22 0-.63-.06-.47.45.07.2-.13.25-.31.29a7.41 7.41 0 0 1-2.05 0c-.08 0-.18-.06-.22 0-.53.39-1 0-1.55 0a.77.77 0 0 0-.34 0 1 1 0 0 1-1.08-.22.56.56 0 0 0-.65-.12c-.22.11-.27 0-.32-.18s0-.58-.47-.39c-.17.08-.61-.31-.66-.5s.11-.23.23-.19a2.68 2.68 0 0 0 .75 0c.3 0 .61.07.71.44.05.21.21.2.36.16a2.38 2.38 0 0 1 1.09.07 2.37 2.37 0 0 0 1.92-.27l.16-.11c.55-.41.56-.45.44-.5s-.22-.5-.58-.48c-.14 0-.12-.15-.11-.27 0-.56-.1-.77-.6-.95-.26-.09-.33-.23-.13-.45a3.49 3.49 0 0 1 1.28-.94c.09 0 .11-.11.13-.18s.15-.29.36-.26c.06 0 .15 0 .13-.07s0-.22-.09-.22-.54-.06-.69.2-.22.34-.47.21-.45-.26-.39-.58.13-.54.19-.81c0-.1.07-.21.17-.24.36-.11.44-.38.5-.72.09-.5.34-.65.84-.62a1.83 1.83 0 0 0 1.16-.21c.33-.22.54-.1.69.27 0 .09.06.18.15.21a14.47 14.47 0 0 0 1.5.69.76.76 0 0 0 .26 0 .13.13 0 0 0 .14-.11c0-.08-.06-.09-.11-.12s-.37-.14-.22-.24 0-.66.47-.43a.13.13 0 0 0 .2 0c0-.11 0-.16-.1-.21s-.28-.1-.42-.19A4 4 0 0 1 21 11.1c-.19-.3.18-.52.35-.73a.66.66 0 0 0 .21-.44c0-.46.15-.54.57-.38.23.09.51.1.64.38 0 .08.12.05.2 0 .29-.1.45.1.61.28a.24.24 0 0 1 0 .37c-.09.08-.28.1-.2.27s.12.43.32.55.38-.09.52-.23 0-.12 0-.18a2.84 2.84 0 0 1 .47-1.47c.17-.2.14-.58.17-.88s.24-.44.5-.54.4 0 .55.2a.91.91 0 0 0 1 .3c.47-.16.89-.2 1.2.3.13.21.37.14.56.06a.47.47 0 0 1 .61.14c.08.11.18.24.32.25.64 0 .73.51.82 1a.31.31 0 0 0 .12.19.43.43 0 0 1 .22.52.8.8 0 0 0 .47.87.84.84 0 0 1 .43.63 2.75 2.75 0 0 0 1 1.18 1.08 1.08 0 0 1 .58.67c0 .08 0 .2.08.25.58.51.66 1.3 1.06 1.9.14.21.32.42.6.11a.41.41 0 0 1 .53 0c.18.12.38.28.35.54s0 .24.22.24a1 1 0 0 1 .64.21.29.29 0 0 0 .49-.13.57.57 0 0 1 .76-.36c.35.09.48-.18.6-.48a1.28 1.28 0 0 1 .26.81v.37a.36.36 0 0 0 .23.33c.14 0 .16-.13.25-.2a.81.81 0 0 0 .16-.16c0-.05.09-.14.18-.09s.08.12.06.2c0 .19-.19.4 0 .53s.31-.1.46-.18.27 0 .37.11c.48.5 1.13.81 1.59 1.34a.89.89 0 0 0 .58.26c.53.05.68.39.41.86s-.24.43.21.66a1.76 1.76 0 0 0 1.31.23 1.63 1.63 0 0 1 1 .18c.12 0 .22.25.36.09a.44.44 0 0 0 .08-.5c-.2-.32 0-.43.24-.53.67-.29.83-.19 1.38.51a1.82 1.82 0 0 0 1.69.7 2 2 0 0 1 1 .09.4.4 0 0 0 .46-.08.35.35 0 0 0 .09-.44 7.15 7.15 0 0 1-.18-.7c0-.18-.14-.39.21-.36.16 0 .17-.16.24-.26s.24-.34.37 0a1.4 1.4 0 0 0 .1.16c.08.15.23.29.06.48s-.31.07-.45 0c-.17.35 0 .55.28.69.15.06.13.2.13.32a2 2 0 0 0 0 .34c0 .1 0 .22.19.18a.15.15 0 0 0 .1-.21c-.15-.35 0-.5.31-.66a.47.47 0 0 0 .08-.8c-.12-.11-.06-.23 0-.35 0-.3-.06-.45-.38-.58a1.11 1.11 0 0 1-.59-.83c0-.16 0-.33-.07-.49a1.06 1.06 0 0 1 .15-.86 1.44 1.44 0 0 0 .15-1.25c0-.08-.1-.2 0-.27a.27.27 0 0 1 .28.05c.21.14.4.26.25.58a.56.56 0 0 0 .26.78.63.63 0 0 1 .28.38 1.52 1.52 0 0 0 .23.48 1 1 0 0 1 .25 1c-.07.26 0 .39.33.31s.41 0 .36.39c0 .21.21.37.32.56.12-.08.11-.19.13-.29.12-.39.36-.48.63-.19s.53.58.34 1c-.11.28.13.5.3.7a6.49 6.49 0 0 1 .7.79c.25.45.62.92.21 1.48a.35.35 0 0 0-.08.32c.26.6-.21 1-.35 1.53 0 .06-.11.16-.16.15-.5-.06-.64.45-1 .63-.18.09-.18.17-.09.32s.13.48-.16.67a1.79 1.79 0 0 0-.73 1 .81.81 0 0 1-.09.25 3.92 3.92 0 0 0-.75 3.17c.06.45.21.59.66.55a.36.36 0 0 1 .42.24 7.86 7.86 0 0 1 .64 1.53c0 .19.14.21.27.17s.28-.12.42-.18.26-.16.39-.11c.78.29 1.71.22 2.28 1a.42.42 0 0 0 .33.17 4.17 4.17 0 0 1 1.36.44 1 1 0 0 0 .67 0 4.24 4.24 0 0 1 1.12-.13.46.46 0 0 1 .49.48 1.54 1.54 0 0 0 .29.91 1.26 1.26 0 0 1 .19.8.51.51 0 0 0 .21.46c.3.17.42.57.75.67a1.16 1.16 0 0 1 .85.7c.06.17.29.11.45.1s.2-.14.22-.27 0-.35.26-.3a.11.11 0 0 0 .07 0 4.8 4.8 0 0 0 0-1.07c-.37-.26-.44-.7-.6-1.08a2.46 2.46 0 0 0-.5-.79c-.39-.39-.33-.55 0-.93 1.37-1.34 1.22-2.67-.06-4a3.17 3.17 0 0 0-.84-.43.44.44 0 0 1-.25-.6 1.87 1.87 0 0 0 .07-.22 1.41 1.41 0 0 0-.45-1.71.46.46 0 0 1-.19-.51.65.65 0 0 0-.13-.67c-.18-.17-.4-.35-.28-.61a.82.82 0 0 1 .69-.47 2.34 2.34 0 0 0 1.34-.45c.15-.13.54 0 .79.06a2 2 0 0 1 .86.47.72.72 0 0 0 .83.19c.52-.18.58-.13.77.37a2.4 2.4 0 0 0 .91 1.35 5.61 5.61 0 0 0 1.06.39c.18.05.4.05.49-.18a2.09 2.09 0 0 0 .26-1.67 1.3 1.3 0 0 1 0-.78c0-.19.17-.14.3-.09a3.19 3.19 0 0 1 .69.46 7.26 7.26 0 0 1 1.38.93.15.15 0 0 0 .1.06 3.67 3.67 0 0 1 1.87 1.49.88.88 0 0 0 .48.3.91.91 0 0 1 .56.28s.11.1.16.09c.48-.12 1 .12 1.45-.11a.58.58 0 0 1 .61.06c.16.1.07.24 0 .33a6.24 6.24 0 0 0 1.43.07.65.65 0 0 1 .6.46 1 1 0 0 0 .3.43.94.94 0 0 1 .37 1.16s.07 0 .08 0c.47-.24.71 0 .69.64 0 .36.08.7.07 1.06a1.49 1.49 0 0 0 .1.39c.2-.07.16-.21.18-.33s.16-.21.3-.23.18.08.19.2.12.18.24.19A.55.55 0 0 0 83 34a1.11 1.11 0 0 1 .25-.32c.44-.31.62-.27.8.23a.75.75 0 0 0 .33.41c.39.21.35.56.34.92s-.25.89-.24 1.36a.31.31 0 0 1 0 .19c-.07.11-.1.35-.3.25s0-.24 0-.35v-.56c0-.19-.11-.11-.19 0a11.27 11.27 0 0 1-1.34.91c-.31.22-.7.3-.94.62a.35.35 0 0 1-.48.1.36.36 0 0 1-.1-.48 1.06 1.06 0 0 0 .07-.28c0-.2 0-.36-.24-.21-.06 0-.11.08-.17 0s0-.12 0-.16a.57.57 0 0 0 .12-.5c-.08-.81-.16-1.61-.32-2.41a5.51 5.51 0 0 1-.06-.57c0-.26-.13-.31-.34-.18A1.25 1.25 0 0 0 79.5 34a2.23 2.23 0 0 1-1.5 2.1c-.83.33-1.57.86-2.4 1.2s-1 1-1.28 1.7c.22 0 .18-.23.39-.23 0 .44-.48.59-.57 1a3.45 3.45 0 0 0-.22 1.18 14.07 14.07 0 0 1 1.36-1.76 1.94 1.94 0 0 1 1.28-.83.59.59 0 0 1 .63.23.45.45 0 0 1 0 .61 1.3 1.3 0 0 0-.14.32.45.45 0 0 1-.51.4.23.23 0 0 0-.2.08c.43.21.43.21.83 0 .18-.12.26-.11.26.14 0 .62.49.94.89 1.29a.29.29 0 0 0 .41-.08c.11-.2-.13-.18-.23-.24s-.22-.09-.24-.22a.28.28 0 0 1 0-.18c0-.07.11-.06.17 0 .43.28.79.07 1.15-.16s.35-.23.4.19c0 .1 0 .23.15.23a1.25 1.25 0 0 0 .51-.09c.12-.06 0-.18 0-.26a.5.5 0 0 1-.05-.41.91.91 0 0 0 0-.63.62.62 0 0 1 0-.33c0-.1 0-.21.18-.22a.24.24 0 0 1 .21.15c.14.3.26.6.69.59.14 0 .17.17.14.31a1.54 1.54 0 0 1-.27.58c-.12.17-.26.31-.15.55s0 .15-.1.22c-.24.31-.49.61-.71.93a.7.7 0 0 0-.16.61.62.62 0 0 1-.65.85c-.29 0-.37.12-.36.34s-.23.55-.42.78a.18.18 0 0 1-.23.06.84.84 0 0 1-.65-1.21c.08-.22.18-.42.28-.63s.11-.25 0-.33-.18.08-.23.16a6 6 0 0 1-.64.59c-.14.14-.31.24-.11.46a.11.11 0 0 1 0 .19c-.44.19-.6.62-.82 1a2.37 2.37 0 0 1-.43.46c-.39.37-.87.71-1 1.32a2.05 2.05 0 0 1-.1.48s-.05.12 0 .14c.31.3.33.81.76 1a.24.24 0 0 0 .28 0s.11-.07.16 0 0 .12 0 .16a.39.39 0 0 0-.14.4c0 .24-.2.24-.35.22a.39.39 0 0 0-.51.31.16.16 0 0 1-.18.14.55.55 0 0 0-.42.23c.44 0 .29.23.1.37a4.44 4.44 0 0 1-.9.64.45.45 0 0 0-.32.59 2 2 0 0 1-.23 1.49.21.21 0 0 1-.23.14c-.15 0-.29-.09-.44 0s0 .15.1.19a1 1 0 0 1 .41 1.22c-.13.37-.07.78-.34 1.12a.78.78 0 0 1 0-.58c.1-.23 0-.34-.18-.44s-.18-.19-.29-.11-.08.23-.06.35a1.85 1.85 0 0 1 .1.44.61.61 0 0 0 .4.65.6.6 0 0 1 .21 1c0 .07-.13.12 0 .22.38.33.38.47.07.82-.13.13-.2.32 0 .43.42.27 0 .42-.1.46a1.58 1.58 0 0 0-.75.78c-.15.26-.2.54-.59.65a1.07 1.07 0 0 0-.59.76 2.61 2.61 0 0 1-1 1.33 2.15 2.15 0 0 0-.62 1.18 5 5 0 0 0 .1 1.76c0 .25.26.4.36.61.27.53.59 1 .88 1.54.18.32.43.61.65.93a1.63 1.63 0 0 1 .23 1.37.39.39 0 0 0 0 .26.58.58 0 0 1 0 .19.86.86 0 0 1-.51.85c-.25 0-.28-.26-.44-.39s-.23-.25-.42-.26a.26.26 0 0 1-.19-.12A7.69 7.69 0 0 0 69 69.38c-.26-.22-.38-.45-.14-.76-.16-.1-.28.17-.39 0a.65.65 0 0 1 0-.51c0-.41.11-.83-.29-1.07s-.83-.53-1.25-.78a.24.24 0 0 0-.4.12 1.2 1.2 0 0 1-.8.53.21.21 0 0 1-.25 0c-.71-.77-1.55-.43-2.37-.25-.16 0-.29.12-.46 0a.28.28 0 0 0-.22 0c-.5.18-1.06.09-1.54.37a.43.43 0 0 1-.4 0 .57.57 0 0 0-.57.11c.1.16.23.11.35.11a.6.6 0 0 1 .67.62c0 .23-.11.22-.22.13s-.29-.11-.41.08-.37.06-.55.2-.32 0-.49-.14a1.87 1.87 0 0 0-.73-.32.22.22 0 0 0-.28.08c-.18.35-.48.24-.72.14s-.76.11-1.1-.16c-.07 0-.13.11-.19.17a.55.55 0 0 1-.61.19.19.19 0 0 0-.28.1 2.12 2.12 0 0 1-1.48 1.23 1.23 1.23 0 0 0-.56.37 2 2 0 0 0-.49 2.4 1.54 1.54 0 0 1 .15.74.41.41 0 0 1-.17.36 1.08 1.08 0 0 0-.46 1.26 3.14 3.14 0 0 1 0 1.72.89.89 0 0 0 0 .56 13.16 13.16 0 0 0 .83 2 2.51 2.51 0 0 0 .35.44 2.92 2.92 0 0 1 .75 1.07 1.26 1.26 0 0 0 1.09.78 1.62 1.62 0 0 1 1 .41c.29.26.68.09 1 0a13.26 13.26 0 0 0 1.65-.54.41.41 0 0 1 .46 0 .54.54 0 0 0 .84-.31.64.64 0 0 1 .26-.4.78.78 0 0 0 .32-.62.43.43 0 0 1 .06-.22 1.44 1.44 0 0 0 .22-1.11.6.6 0 0 1 .42-.66 11.85 11.85 0 0 1 2.33-.79c.32-.06.67 0 1 0s.29.5 0 .76a2.43 2.43 0 0 0-.36.72c-.29.61 0 1.25-.2 1.85-.08.2-.07.36-.32.2-.05 0-.09-.06-.14 0a.17.17 0 0 0 0 .18c0 .07.13.14.12.19-.2.82.42 1.75-.35 2.5-.17.16-.18.36.14.41.13 0 .27.11.37.07a24.37 24.37 0 0 0 2.6-.6 3.86 3.86 0 0 1 2.14-.16.41.41 0 0 1 .21.14.68.68 0 0 0 .76.29c.26 0 .39.07.36.34.37.7-.25 1.31-.15 2a6.86 6.86 0 0 1 .13 1.43v.3c-.39.83.27 1.23.73 1.65a4 4 0 0 0 2.94.76 2.88 2.88 0 0 0 1.58-.84 1.26 1.26 0 0 1 .94-.31 3.23 3.23 0 0 0 .53 0 1 1 0 0 1 .78.27Z" fill="#e8af54" class="fill-000000"></path></svg>