<svg viewBox="0 0 504.002 392.045" xml:space="preserve" xmlns="http://www.w3.org/2000/svg" enable-background="new 0 0 504.002 392.045"><path d="M499.991 59.397c.37 5.54-15.43 7.46-16.67 16.53-.74 5.47 4.7 6.95 4.17 12.4-.75 7.76-12.07 7.64-25.01 20.67-7.4 7.45-7.27 11.09-12.5 12.4-6.57 1.64-9.63-3.39-20.84-4.14-6.45-.43-15.66.56-16.67 4.14-1.15 4.01 9 7.88 8.33 12.4-.72 4.84-16.22.07-24.94 8.26-4.87 4.56-2.52 8.01-8.4 24.8-4.93 14.04-7.17 13.23-8.34 20.67-2.15 13.66 3.33 30.29 12.51 33.06 5.58 1.69 9.93-2.55 12.5 0 2.87 2.84 1.13 11.7-4.17 16.53-6.24 5.69-14.59 3.19-16.67 8.27-1.18 2.87 1.18 4.41 0 8.27-1.3 4.23-4.97 5.05-8.34 8.26-6.94 6.61-8.78 19.68-4.16 24.8 3.99 4.43 11.19 1.11 12.5 4.13 1.8 4.16-9.14 16.59-20.84 16.54-8.38-.05-13.03-6.47-16.67-4.14-4.28 2.75.62 12.61-4.17 16.53-4.59 3.77-11.81-3.06-16.67 0-8.52 5.37 3.44 32.76-4.17 37.2-4.92 2.88-12.26-7.22-20.84-4.13-7.13 2.57-6.48 11.13-12.5 12.4-6.89 1.45-9.53-9.37-20.84-12.4-11.01-2.95-14.36 5.72-29.18 4.13-11.4-1.22-15.59-7.02-20.84-4.13-6.16 3.39-2.5 12.52-8.34 16.53-8.56 5.88-22.55-9.58-33.34-4.13-8.33 4.21-4.25 15.59-12.5 20.66-12.92 7.95-41.88-8.25-41.68-20.66.09-5.55 5.98-9.31 4.17-12.4-2.36-4-13.17.66-16.68-4.13-2.38-3.26 1.54-6.87 0-12.4-2.34-8.43-14.69-11.85-16.67-12.4-15.25-4.23-23.62 4.82-29.17 0-5.69-4.94-3.9-20.49 4.16-28.93 8.1-8.49 18.94-6.05 20.84-12.4 2.17-7.26-10.82-14.22-8.33-20.67 2.21-5.73 13.48-2.75 16.67-8.26 5.99-10.36-24.73-36.48-20.84-41.34 2.87-3.57 21.28 8.48 25.01 4.14 3.94-4.6-13.35-21.96-8.34-28.93 3.39-4.72 13.05.35 16.67-4.14 6.7-8.29-20.06-33.46-12.5-45.46 3.26-5.17 9.62-2.73 20.84-12.4 1.58-1.36 10.08-8.7 8.34-12.4-1.44-3.04-8.14-.14-12.51-4.13-5.39-4.93-.61-14.3-4.17-16.54-4.37-2.74-12.8 10.65-29.17 16.54-16.22 5.82-35.32 2.52-37.51-4.14-1.57-4.72 5.89-9.67 4.16-12.4-3.18-5.03-30.55 8.55-33.34 4.14-2.64-4.17 20.22-18.78 16.67-28.93-2.5-7.18-16.44-7.12-16.67-12.4-.22-5.13 12.81-7.67 12.5-12.4-.37-5.84-20.53-6.8-20.84-12.4-.18-3.35 6.81-7.05 12.51-8.27 8.11-1.74 10.72 2.16 16.67 0 6.15-2.23 5.12-7.02 12.5-12.4 7.18-5.23 17.66-7.63 20.84-4.13 2.77 3.04-2.37 7.9 0 12.4 3.97 7.5 25.07 6.94 41.68 0 9.8-4.1 9.52-6.85 16.68-8.27 13.02-2.57 17.13 5.94 33.34 8.27 20.55 2.95 24.5-9.2 41.68-4.13 11.46 3.38 16.42 10.77 25.01 8.26 6.51-1.9 6.31-6.93 12.5-8.26 10.11-2.18 15.47 10.16 25.01 8.26 7.64-1.52 7.29-10.06 16.67-12.4 5.43-1.35 12.94-.34 16.67 4.14 4.92 5.9.33 14.34 4.17 16.53 4.01 2.28 10.02-6.35 16.67-4.14 4.64 1.55 3.71 6.41 8.34 8.27 7.19 2.89 13.92-7.06 20.84-4.13 4.64 1.96 3.93 7.42 8.33 8.26 4.51.87 6.71-4.56 12.51-4.13 3.37.25 3.54 2.15 8.33 4.13 5.34 2.21 13.88 3.47 16.68 0 2.86-3.55-2.59-9.25 0-12.4 2.83-3.45 13.87-2.08 20.84 4.14 8.66 7.73 5.9 18.4 12.5 20.66 5.31 1.82 8.17-4.72 16.67-4.13 7.97.55 8.28 6.5 16.67 8.27 9.68 2.04 12.93-5.09 25.01-4.14 7.56.6 16.41 4.2 16.67 8.27z" fill="#e8af54" class="fill-ffc05a"></path><path d="M503.986 59.135c-.497-7.6-12.744-11.389-20.347-11.992-6.939-.55-11.489 1.264-15.146 2.722-3.293 1.312-5.671 2.262-9.352 1.484-3.058-.645-4.579-1.921-6.507-3.537-2.353-1.973-5.28-4.428-10.716-4.805-5.529-.386-9.224 1.638-11.919 3.113-2.247 1.23-2.925 1.505-3.733 1.227-1.211-.415-1.785-1.918-2.9-5.509-1.271-4.091-3.012-9.693-8.235-14.356-6.014-5.369-14.017-7.357-19.299-6.95-3.229.251-5.752 1.379-7.298 3.264-2.609 3.182-1.453 7.019-.688 9.558.279.926.746 2.476.665 2.869-.791.971-6.414 1.134-12.028-1.188-1.733-.716-2.67-1.389-3.576-2.04-1.414-1.015-3.017-2.167-5.994-2.386-4.309-.316-7.229 1.575-9.355 2.958-1.585 1.032-2.158 1.338-2.689 1.236-.33-.063-.542-.302-1.404-1.856-1.032-1.86-2.592-4.671-6.126-6.166-5.166-2.185-9.875.221-13.659 2.153-3.316 1.693-5.46 2.669-7.25 1.952-.905-.363-1.264-.894-2.137-2.441-1.041-1.846-2.614-4.637-6.423-5.907-5.239-1.749-9.807.841-13.142 2.732-.739.419-1.737.986-2.481 1.315-.037-.696-.019-1.615-.005-2.308.072-3.634.171-8.61-3.403-12.903-5.032-6.044-14.266-7.065-20.715-5.455-6.215 1.551-9.101 5.261-11.419 8.241-1.879 2.416-2.958 3.696-5.067 4.117-2.891.58-5.32-.945-9.047-3.476-4.099-2.783-9.205-6.245-16.02-4.778-4.366.94-6.535 3.284-8.278 5.167-1.364 1.474-2.35 2.539-4.506 3.17-3.48 1.018-5.994-.244-10.904-2.964-3.262-1.808-6.959-3.856-11.851-5.299-10.021-2.957-16.323-.704-22.416 1.473-5.528 1.976-10.753 3.842-19.826 2.537-6.496-.934-10.792-2.909-14.946-4.819-5.723-2.63-11.125-5.115-19.743-3.412-4.638.917-6.89 2.441-9.274 4.054-1.875 1.268-3.999 2.705-8.163 4.445-16.691 6.975-34.353 6.082-36.601 1.823-.4-.759-.099-1.927.447-3.76.745-2.5 1.87-6.276-1.024-9.462C63.964-3.1 50.748 1.159 43.328 6.567c-4.079 2.974-6.036 5.917-7.465 8.065-1.408 2.117-2.051 3.083-4.045 3.806-1.919.694-3.216.433-5.363-.001-2.633-.532-5.91-1.193-10.784-.15-4.493.962-16.065 5.065-15.66 12.398.305 5.51 6.762 7.614 13.006 9.648 2.21.72 5.642 1.838 7.26 2.801-.922.718-2.47 1.623-3.506 2.229-3.852 2.252-8.646 5.055-8.426 10.075.223 5.104 5.148 7.083 9.495 8.83 3.135 1.26 6.688 2.688 7.396 4.714 1.279 3.663-5.564 10.995-9.653 15.375-5.234 5.608-9.369 10.038-6.622 14.376 2.963 4.68 9.854 2.667 20.286-.38 3.246-.948 8.066-2.356 11.224-2.864-1.742 2.588-4.154 6.383-2.752 10.625.893 2.705 3.112 4.938 6.597 6.636 7.612 3.709 22.444 4.902 36.065.008 9.091-3.267 15.807-8.616 20.71-12.522 1.521-1.211 3.296-2.625 4.577-3.455.002.602-.019 1.264-.035 1.797-.118 3.744-.296 9.403 4.04 13.368 3.354 3.067 7.486 3.321 10.22 3.49.193.012.404.025.617.04-.855 1.376-2.758 3.724-6.582 7.022-5.527 4.768-9.671 6.262-13 7.463-3.286 1.185-6.391 2.305-8.612 5.834-5.262 8.355 1.076 19.707 6.668 29.722 2.645 4.737 7.568 13.555 6.11 15.359-.536.663-3.256.565-5.054.501-3.706-.132-8.788-.316-11.756 3.812-4.187 5.825.309 13.885 4.273 20.995 1.224 2.194 2.933 5.26 3.609 7.158-2.267-.372-6.229-1.854-8.574-2.731-6.806-2.546-12.682-4.745-15.854-.791-3.63 4.528.854 10.285 8.28 19.824 5.003 6.425 14.315 18.383 12.219 22.005-.646 1.115-3.37 1.63-5.774 2.084-4.115.777-9.236 1.745-11.167 6.746-2.043 5.291 1.604 10.015 4.534 13.811 1.973 2.556 4.209 5.452 3.701 7.147-.302 1.009-1.948 1.627-5.372 2.703-4.109 1.293-9.737 3.063-14.528 8.081-5.589 5.854-8.948 14.997-8.561 23.295.235 5.026 1.848 8.976 4.662 11.419 4.167 3.62 8.989 2.439 13.652 1.302 4.677-1.142 9.976-2.435 17.079-.467 7.608 2.112 12.799 5.707 13.886 9.616.471 1.695.107 3.177-.313 4.893-.582 2.375-1.38 5.629.938 8.797 3.061 4.187 8.55 4.072 12.55 3.991.949-.02 2.209-.047 3.15.021-.219.373-.464.766-.664 1.086-1.368 2.194-3.241 5.2-3.303 9.009-.135 8.271 8.354 16.083 16.343 20.635 6.062 3.453 13.745 6.229 20.844 6.229 3.812 0 7.455-.801 10.587-2.727 5.45-3.351 6.844-8.656 7.963-12.919 1.052-4.004 1.768-6.329 4.25-7.584 3.826-1.935 8.962.194 14.399 2.446 6.274 2.598 13.385 5.544 19.405 1.415 4.234-2.906 5.038-7.331 5.684-10.887.599-3.289.975-4.702 2.315-5.439 1.103-.601 2.114-.309 5.633 1.11 3.021 1.218 7.158 2.886 12.854 3.496 8.416.9 13.711-1.182 17.964-2.855 3.854-1.517 6.397-2.517 10.603-1.393 4.616 1.237 7.493 4.083 10.275 6.835 3.216 3.183 6.857 6.79 12.426 5.615 4.726-.998 6.772-4.617 8.417-7.524 1.48-2.618 2.495-4.262 4.616-5.025 2.806-1.012 5.569.224 9.472 2.218 3.695 1.889 7.882 4.029 12.03 1.606 5.96-3.48 4.902-12.221 3.783-21.475-.65-5.38-1.74-14.383.499-15.793.833-.524 2.998.093 4.908.641 3.451.987 8.176 2.342 12.169-.933 3.98-3.266 3.835-8.433 3.729-12.205-.032-1.146-.083-2.942.102-3.829.672.222 1.758.76 2.599 1.176 2.848 1.41 6.747 3.341 11.854 3.366h.098c9.235 0 18.34-6.465 22.575-12.875 2.925-4.426 2.625-7.47 1.858-9.243-1.597-3.697-5.517-3.834-8.11-3.925-2.446-.085-4.122-.222-5.094-1.3-2.754-3.056-1.839-13.709 3.954-19.224.917-.873 1.901-1.554 2.944-2.274 2.435-1.684 5.194-3.592 6.458-7.718.929-3.03.394-5.252.039-6.723-.242-1.003-.221-1.056-.163-1.195.276-.674 2.161-1.107 4.157-1.566 3.239-.746 7.675-1.767 11.51-5.264 4.047-3.69 6.733-9.528 6.842-14.872.064-3.163-.819-5.742-2.556-7.46-2.899-2.868-6.548-1.952-8.963-1.345-1.793.451-3.484.879-5.197.359-6.725-2.031-11.624-16.472-9.71-28.613.493-3.13 1.139-4.341 2.425-6.754 1.36-2.553 3.224-6.05 5.734-13.211 2.675-7.626 3.695-12.547 4.44-16.14.902-4.351 1.182-5.439 2.921-7.073 3.822-3.59 9.854-4.063 14.7-4.444 5.004-.394 10.676-.839 11.464-6.143.658-4.42-2.86-7.516-5.687-10.004-.605-.532-1.474-1.296-2.084-1.93 2.03-.816 6.674-1.542 11.885-1.197 4.781.318 7.892 1.514 10.636 2.569 3.345 1.287 6.8 2.618 11.442 1.453 4.53-1.135 6.446-3.717 8.664-6.707 1.318-1.776 2.958-3.987 5.706-6.753 5.684-5.722 11.044-8.74 15.351-11.165 5.474-3.082 10.2-5.743 10.801-11.934.401-4.146-1.455-6.828-2.811-8.786-1.166-1.685-1.53-2.325-1.375-3.459.406-2.987 4.476-5.27 8.066-7.283 4.203-2.355 8.965-5.025 8.636-10.049zm-12.546 3.073c-4.699 2.635-11.136 6.245-12.08 13.18-.588 4.308 1.326 7.073 2.724 9.092 1.145 1.654 1.535 2.333 1.426 3.461-.182 1.872-1.899 2.997-6.763 5.735-4.488 2.527-10.635 5.988-17.102 12.498-3.153 3.175-5.062 5.747-6.455 7.624-2.005 2.702-2.488 3.289-4.185 3.714-2.101.523-3.548.023-6.625-1.159-3.112-1.197-6.986-2.688-12.977-3.085-3.082-.204-18.548-.826-20.785 7.03-1.26 4.428 2.455 7.697 5.167 10.084.587.516 1.392 1.225 2.035 1.873-.986.122-2.168.215-3.153.292-5.772.454-13.679 1.075-19.55 6.588-3.648 3.426-4.297 6.551-5.278 11.28-.699 3.373-1.657 7.993-4.155 15.117-2.309 6.585-3.938 9.64-5.245 12.096-1.433 2.688-2.564 4.811-3.268 9.27-2.342 14.851 3.365 33.912 15.299 37.517 3.826 1.156 7.085.338 9.461-.259.473-.119 1.059-.267 1.499-.348.445 1.884-.673 7.173-4.163 10.354-2.284 2.083-5.146 2.742-7.913 3.379-3.526.812-7.915 1.822-9.764 6.324-1.063 2.589-.552 4.708-.214 6.11.251 1.041.377 1.564.09 2.503-.433 1.41-1.343 2.086-3.36 3.481-1.19.823-2.541 1.757-3.909 3.06-8.306 7.907-10.558 23.52-4.382 30.374 3.316 3.68 7.795 3.836 10.758 3.939l.344.013c-1.949 3.432-8.649 10.035-16.38 10.035h-.066c-3.256-.016-5.842-1.297-8.343-2.535-3.021-1.496-6.781-3.357-10.509-.964-3.978 2.553-3.846 7.243-3.739 11.012.063 2.235.142 5.018-.806 5.794-.747.613-2.854.01-4.892-.573-3.348-.957-7.512-2.15-11.375.281-6.525 4.109-5.332 13.979-4.178 23.522.485 4.01 1.494 12.352.199 13.579-.672.093-3.037-1.083-4.429-1.794-4.031-2.06-9.552-4.882-15.825-2.621-5.02 1.809-7.244 5.741-8.868 8.613-1.359 2.404-2.021 3.406-3.106 3.635-1.223.262-2.446-.803-5.147-3.475-3.023-2.992-7.166-7.089-13.83-8.875-6.748-1.807-11.25-.036-15.603 1.676-3.969 1.563-7.718 3.04-14.183 2.345-4.589-.491-7.844-1.804-10.715-2.961-3.902-1.573-7.935-3.201-12.478-.7-4.811 2.644-5.69 7.484-6.332 11.019-.53 2.915-.927 4.751-2.34 5.722-2.438 1.671-6.994-.213-11.817-2.211-6.548-2.712-13.969-5.784-21.068-2.195-5.819 2.94-7.239 8.348-8.38 12.692-1.053 4.009-1.829 6.547-4.415 8.137-4.786 2.94-14.357 1.444-23.281-3.64-7.307-4.163-12.366-9.736-12.305-13.555.026-1.589 1.077-3.274 2.094-4.905 1.555-2.493 3.684-5.908 1.524-9.585-1.976-3.361-5.771-3.775-9.24-3.775-.587 0-1.166.012-1.724.023-1.988.041-5.324.11-5.938-.716-.069-.319.203-1.434.384-2.17.541-2.207 1.281-5.229.25-8.939-2.563-9.222-13.288-13.47-19.456-15.183-9.11-2.526-16.049-.833-21.114.404-3.884.949-5.561 1.254-6.508.43-1.075-.934-1.792-3.084-1.917-5.752-.281-6.029 2.331-13.183 6.355-17.396 3.369-3.53 7.321-4.772 11.143-5.975 4.258-1.339 9.084-2.857 10.636-8.04 1.686-5.629-2.04-10.454-5.033-14.331-1.522-1.973-3.823-4.953-3.403-6.041.327-.848 3.137-1.378 5.188-1.766 3.891-.735 8.731-1.649 11.214-5.938 4.799-8.289-4.163-19.798-12.83-30.928-2.031-2.608-4.541-5.832-6.165-8.282 1.532.5 3.253 1.145 4.623 1.656 7.372 2.758 14.333 5.36 18.113.958 3.635-4.233.394-10.044-3.358-16.772-1.791-3.212-5.984-10.733-4.765-12.431.466-.648 3.179-.551 4.973-.486 3.792.137 8.513.306 11.563-3.467 4.857-6.011-.1-14.889-5.347-24.288-4.284-7.672-9.615-17.221-6.884-21.559.697-1.107 1.685-1.535 4.558-2.571 3.74-1.349 8.863-3.197 15.51-8.931 8.447-7.285 11.416-12.729 9.343-17.131-1.684-3.577-5.398-3.806-8.11-3.973-2.08-.128-4.045-.249-5.313-1.409-1.51-1.38-1.552-3.752-1.442-7.212.105-3.358.237-7.539-3.299-9.756-4.514-2.831-9.013.754-14.224 4.905-4.716 3.756-10.585 8.431-18.431 11.251-11.412 4.101-23.9 3.232-29.855.329-1.754-.854-2.406-1.65-2.506-1.953-.221-.667 1.262-2.863 1.974-3.917 1.678-2.485 3.976-5.889 1.777-9.364-3.253-5.143-11.554-2.719-22.062.35-2.534.74-5.832 1.704-8.464 2.295.933-1.056 1.984-2.182 2.891-3.154 6.341-6.792 14.23-15.246 11.358-23.472-1.906-5.457-7.484-7.699-11.967-9.5-1.313-.527-3.16-1.27-4.119-1.87.902-.832 2.849-1.97 4.105-2.705 3.714-2.172 8.336-4.875 8.028-9.663-.365-5.651-6.963-7.801-13.343-9.879-2.104-.685-5.36-1.747-6.946-2.648 1.397-1.234 4.781-3.108 8.799-3.969 3.244-.694 5.325-.276 7.524.169 2.646.534 5.644 1.141 9.672-.319 4.472-1.62 6.336-4.424 7.981-6.897 1.275-1.917 2.594-3.9 5.517-6.031 6.383-4.653 13.563-5.568 15.302-4.804-.076.5-.324 1.334-.501 1.926-.721 2.419-1.81 6.076.146 9.778 5.442 10.314 29.013 9.238 46.759 1.824 4.9-2.048 7.484-3.795 9.561-5.2 2.126-1.438 3.297-2.229 6.346-2.833 6.075-1.201 9.564.404 14.849 2.833 4.234 1.947 9.505 4.37 17.149 5.469 11.039 1.585 17.743-.809 23.657-2.922 5.553-1.985 9.938-3.552 17.46-1.333 4.048 1.194 7.194 2.938 10.237 4.624 5.008 2.774 10.184 5.644 17.026 3.646 4.28-1.252 6.507-3.658 8.133-5.415 1.415-1.529 2.195-2.372 4.09-2.78 3.313-.713 5.895.896 9.843 3.576 3.913 2.657 8.782 5.963 15.106 4.703 5.127-1.024 7.727-4.365 9.815-7.05 1.959-2.519 3.507-4.509 7.042-5.391 4.185-1.046 10.056-.28 12.629 2.812 1.665 1.999 1.61 4.732 1.553 7.625-.067 3.396-.151 7.624 3.71 9.823 3.846 2.19 7.658.025 10.723-1.713 2.9-1.645 4.929-2.68 6.663-2.102.803.268 1.094.666 1.986 2.249 1.01 1.79 2.536 4.496 6.126 5.936 5.301 2.126 10.051-.302 13.868-2.252 3.216-1.643 5.285-2.595 6.903-1.909.949.401 1.423 1.195 2.247 2.679 1.114 2.01 2.8 5.046 6.893 5.831 3.782.729 6.542-1.074 8.56-2.387 1.772-1.153 2.851-1.803 4.403-1.686.706.052.848.138 1.917.906 1.096.787 2.596 1.864 5.186 2.935 5.283 2.184 16.537 4.747 21.315-1.188 2.793-3.467 1.572-7.516.765-10.196-.21-.695-.507-1.681-.582-2.258 1.939-.831 9.39-.239 14.878 4.662 3.569 3.187 4.766 7.038 5.923 10.763 1.301 4.187 2.775 8.932 7.95 10.703 4.252 1.457 7.533-.336 10.166-1.778 2.323-1.272 4.316-2.372 7.523-2.149 2.841.197 4.079 1.235 6.13 2.955 2.219 1.861 4.981 4.177 9.994 5.234 6.046 1.278 10.255-.4 13.966-1.88 3.33-1.328 6.481-2.579 11.552-2.179 6.195.492 11.357 2.93 12.744 4.381-.871.781-2.896 1.917-4.311 2.711z" fill="#594d43" class="fill-3a322b"></path></svg>