<svg width="16" height="16" viewBox="0 0 16 16" fill="none" xmlns="http://www.w3.org/2000/svg">
<path d="M6.66602 1.33325H9.33268" stroke="black" style="stroke:black;stroke:black;stroke-opacity:1;" stroke-width="1.33333"
      stroke-linecap="round" stroke-linejoin="round"/>
<path d="M14 5.33336L12.6667 6.66669L11.6667 4.20003C11.5724 3.94758 11.4038 3.72964 11.1831 3.57493C10.9625
3.42022 10.7001 3.33599 10.4307 3.33336H5.6C5.32834 3.32712 5.06125 3.40403 4.83451 3.5538C4.60778 3.70357
4.43221 3.91904 4.33133 4.17136L3.33333 6.66669L2 5.33336" stroke="black"
      style="stroke:black;stroke:black;stroke-opacity:1;" stroke-width="1.33333" stroke-linecap="round"
      stroke-linejoin="round"/>
<path fill-rule="evenodd" clip-rule="evenodd" d="M12.6667 6.66675H3.33333C2.59695 6.66675 2 7.2637 
2 8.00008V10.6667C2 11.4031 2.59695 12.0001 3.33333 12.0001H12.6667C13.403 12.0001 14 11.4031 14
 10.6667V8.00008C14 7.2637 13.403 6.66675 12.6667 6.66675ZM4 9.33341C4 8.96522 4.29848 8.66675 
 4.66667 8.66675H4.67333C5.04152 8.66675 5.34 8.96522 5.34 9.33341C5.34 9.7016 5.04152 10.0001 
 4.67333 10.0001H4.66667C4.29848 10.0001 4 9.7016 4 9.33341ZM11.3337 8.66675C10.9655 8.66675 
 10.667 8.96522 10.667 9.33341C10.667 9.7016 10.9655 10.0001 11.3337 10.0001H11.3403C11.7085 10.0001
  12.007 9.7016 12.007 9.33341C12.007 8.96522 11.7085 8.66675 11.3403 8.66675H11.3337Z" fill="black"
      style="fill:black;fill:black;fill-opacity:1;"/>
<path d="M3.33398 12V13.3333" stroke="black" style="stroke:black;stroke:black;stroke-opacity:1;"
      stroke-width="1.33333" stroke-linecap="round" stroke-linejoin="round"/>
<path d="M12.666 12V13.3333" stroke="black" style="stroke:black;stroke:black;stroke-opacity:1;"
      stroke-width="1.33333" stroke-linecap="round" stroke-linejoin="round"/>
</svg>
