<svg viewBox="0 0 32 32" xml:space="preserve" xmlns="http://www.w3.org/2000/svg"><path d="M20.5 30.081a.5.5 0 0 1-.179-.967C25.512 27.129 29 22.06 29 16.5c0-5.56-3.488-10.629-8.68-12.614a.5.5 0 1 1 .357-.934C26.253 5.083 30 10.528 30 16.5c0 5.971-3.746 11.416-9.321 13.547a.49.49 0 0 1-.179.034zM10.496 30.079a.51.51 0 0 1-.179-.033C4.744 27.913 1 22.469 1 16.5c0-5.972 3.746-11.416 9.321-13.547a.5.5 0 1 1 .358.934C5.488 5.871 2 10.94 2 16.5c0 5.558 3.486 10.626 8.675 12.612a.5.5 0 0 1-.179.967z" fill="#e8af54" class="fill-263238"></path><path d="M11.5 20c-.827 0-1.5-.673-1.5-1.5v-6a.5.5 0 0 1 1 0v6c0 .275.225.5.5.5s.5-.225.5-.5v-6a.5.5 0 0 1 1 0v6c0 .827-.673 1.5-1.5 1.5zM19.5 20c-.827 0-1.5-.673-1.5-1.5v-6a.5.5 0 0 1 1 0v6c0 .275.225.5.5.5s.5-.225.5-.5v-6a.5.5 0 0 1 1 0v6c0 .827-.673 1.5-1.5 1.5zM15.5 7c-1.654 0-3-1.346-3-3s1.346-3 3-3 3 1.346 3 3-1.346 3-3 3zm0-5c-1.104 0-2 .897-2 2s.896 2 2 2 2-.897 2-2-.896-2-2-2z" fill="#e8af54" class="fill-263238"></path><path d="M10.5 18.5a.5.5 0 0 1-.5-.5v-6.5C10 9.881 11.311 8 13 8h4a.5.5 0 0 1 0 1h-4c-1.077 0-2 1.375-2 2.5V18a.5.5 0 0 1-.5.5z" fill="#e8af54" class="fill-263238"></path><path d="M12.5 31a.5.5 0 0 1-.5-.5v-14a.5.5 0 0 1 1 0v14a.5.5 0 0 1-.5.5zM20.5 18.5a.5.5 0 0 1-.5-.5v-6.5c0-1.125-.923-2.5-2-2.5h-4a.5.5 0 0 1 0-1h4c1.689 0 3 1.881 3 3.5V18a.5.5 0 0 1-.5.5z" fill="#e8af54" class="fill-263238"></path><path d="M18.5 31a.5.5 0 0 1-.5-.5v-14a.5.5 0 0 1 1 0v14a.5.5 0 0 1-.5.5zM15.5 31a.5.5 0 0 1-.5-.5v-10a.5.5 0 0 1 1 0v10a.5.5 0 0 1-.5.5z" fill="#e8af54" class="fill-263238"></path></svg>