<?xml version="1.0" encoding="UTF-8"?>
<svg xmlns="http://www.w3.org/2000/svg" xmlns:xlink="http://www.w3.org/1999/xlink" width="64px" height="64px" viewBox="0 0 64 64" version="1.1">
<g id="surface1">
<path style=" stroke:none;fill-rule:nonzero;fill:rgb(0%,0%,0%);fill-opacity:1;" d="M 59.300781 21.320312 C 59.246094 21.171875 59.1875 21.027344 59.128906 20.878906 C 59.113281 20.84375 59.097656 20.808594 59.082031 20.769531 C 59.035156 20.660156 58.992188 20.550781 58.945312 20.441406 C 58.90625 20.359375 58.867188 20.273438 58.832031 20.191406 C 58.804688 20.132812 58.777344 20.070312 58.75 20.011719 C 58.710938 19.929688 58.671875 19.851562 58.632812 19.769531 C 58.605469 19.707031 58.574219 19.648438 58.546875 19.585938 C 58.5 19.496094 58.453125 19.40625 58.40625 19.316406 C 58.382812 19.265625 58.359375 19.21875 58.332031 19.167969 C 58.28125 19.070312 58.226562 18.972656 58.171875 18.871094 C 58.152344 18.835938 58.132812 18.796875 58.109375 18.757812 C 58.050781 18.652344 57.992188 18.550781 57.933594 18.445312 C 57.914062 18.414062 57.898438 18.382812 57.878906 18.351562 C 57.804688 18.230469 57.730469 18.109375 57.65625 17.988281 C 57.648438 17.976562 57.644531 17.964844 57.636719 17.953125 C 57.558594 17.832031 57.480469 17.710938 57.402344 17.585938 C 57.398438 17.578125 57.390625 17.570312 57.386719 17.5625 C 57.316406 17.457031 57.242188 17.351562 57.171875 17.246094 C 57.15625 17.222656 57.140625 17.199219 57.125 17.175781 C 57.050781 17.070312 56.976562 16.964844 56.898438 16.859375 C 56.886719 16.839844 56.871094 16.820312 56.855469 16.800781 C 56.765625 16.675781 56.671875 16.550781 56.578125 16.429688 C 56.488281 16.308594 56.390625 16.191406 56.296875 16.070312 C 56.296875 16.070312 56.292969 16.066406 56.292969 16.066406 C 56.199219 15.949219 56.101562 15.832031 56.003906 15.71875 C 56 15.714844 56 15.710938 55.996094 15.710938 C 54.367188 13.792969 52.355469 12.214844 50.054688 11.058594 L 50.441406 10.214844 C 50.625 9.808594 50.449219 9.328125 50.042969 9.140625 C 49.636719 8.957031 49.15625 9.132812 48.96875 9.539062 L 48.578125 10.390625 C 44.144531 8.613281 39.273438 8.558594 34.777344 10.257812 C 30.023438 12.058594 26.253906 15.597656 24.164062 20.230469 C 23.980469 20.636719 24.164062 21.117188 24.570312 21.300781 L 40.320312 28.40625 L 35.785156 38.304688 L 22.625 38.304688 L 19.171875 31.464844 C 19.03125 31.191406 18.753906 31.019531 18.449219 31.019531 L 13.503906 31.019531 C 13.222656 31.019531 12.964844 31.164062 12.816406 31.402344 C 12.667969 31.636719 12.652344 31.933594 12.777344 32.1875 L 18.265625 43.351562 C 18.402344 43.628906 18.683594 43.804688 18.992188 43.804688 L 19.488281 43.804688 L 18.058594 47.039062 C 17.945312 47.289062 17.96875 47.578125 18.117188 47.808594 C 18.269531 48.035156 18.523438 48.175781 18.796875 48.175781 L 22.511719 48.175781 C 22.824219 48.175781 23.105469 48 23.242188 47.71875 L 25.148438 43.804688 L 33.265625 43.804688 L 31.933594 46.710938 C 31.921875 46.738281 31.914062 46.765625 31.902344 46.796875 C 26.410156 46.914062 21.933594 48.667969 18.964844 50.269531 C 15.105469 52.351562 12.929688 54.589844 12.835938 54.6875 C 12.511719 55.023438 12.523438 55.558594 12.859375 55.886719 C 13.195312 56.210938 13.734375 56.203125 14.058594 55.867188 C 14.082031 55.84375 16.183594 53.691406 19.828125 51.734375 C 23.164062 49.941406 28.53125 47.945312 35.121094 48.621094 C 47.773438 49.917969 52.628906 55.75 52.675781 55.804688 C 52.84375 56.015625 53.089844 56.125 53.339844 56.125 C 53.523438 56.125 53.710938 56.0625 53.867188 55.9375 C 54.234375 55.648438 54.292969 55.113281 54 54.746094 C 53.792969 54.484375 48.71875 48.304688 35.292969 46.929688 C 34.742188 46.875 34.199219 46.835938 33.664062 46.816406 L 35.042969 43.804688 L 40.457031 43.804688 L 42.363281 47.722656 C 42.5 48 42.78125 48.175781 43.09375 48.175781 L 46.808594 48.175781 C 47.082031 48.175781 47.335938 48.039062 47.488281 47.808594 C 47.636719 47.578125 47.660156 47.289062 47.546875 47.039062 L 46.117188 43.804688 L 46.46875 43.804688 C 46.914062 43.804688 47.277344 43.445312 47.277344 42.996094 L 47.277344 39.113281 C 47.277344 38.664062 46.914062 38.304688 46.46875 38.304688 L 37.566406 38.304688 L 41.796875 29.070312 L 57.777344 36.28125 C 57.882812 36.328125 57.996094 36.351562 58.109375 36.351562 C 58.207031 36.351562 58.304688 36.335938 58.398438 36.300781 C 58.597656 36.222656 58.761719 36.070312 58.847656 35.875 C 60.9375 31.242188 61.097656 26.074219 59.300781 21.320312 Z M 22.007812 46.558594 L 20.039062 46.558594 L 21.261719 43.804688 L 23.347656 43.804688 Z M 45.566406 46.558594 L 43.597656 46.558594 L 42.257812 43.804688 L 44.347656 43.804688 Z M 45.660156 42.1875 L 19.496094 42.1875 L 14.804688 32.636719 L 17.949219 32.636719 L 21.402344 39.476562 C 21.542969 39.75 21.820312 39.921875 22.125 39.921875 L 45.660156 39.921875 Z M 49.417969 30.734375 L 42.472656 27.601562 L 40.996094 26.933594 L 34.253906 23.894531 C 36.371094 18.976562 39.4375 15.535156 43.371094 13.648438 C 45.109375 12.816406 46.660156 12.480469 47.683594 12.347656 C 48.078125 12.292969 48.398438 12.269531 48.617188 12.261719 C 48.753906 12.433594 48.941406 12.6875 49.152344 13.019531 C 49.714844 13.886719 50.46875 15.28125 50.980469 17.148438 C 52.136719 21.359375 51.613281 25.925781 49.417969 30.734375 Z M 49.417969 30.734375 "/>
<path style=" stroke:none;fill-rule:nonzero;fill:rgb(0%,0%,0%);fill-opacity:1;" d="M 10.042969 22.714844 C 12.945312 22.714844 15.304688 20.355469 15.304688 17.453125 C 15.304688 14.550781 12.945312 12.191406 10.042969 12.191406 C 7.140625 12.191406 4.78125 14.550781 4.78125 17.453125 C 4.78125 20.355469 7.140625 22.714844 10.042969 22.714844 Z M 10.042969 13.8125 C 12.050781 13.8125 13.6875 15.445312 13.6875 17.453125 C 13.6875 19.460938 12.050781 21.097656 10.042969 21.097656 C 8.035156 21.097656 6.398438 19.460938 6.398438 17.453125 C 6.398438 15.445312 8.035156 13.8125 10.042969 13.8125 Z M 10.042969 13.8125 "/>
<path style=" stroke:none;fill-rule:nonzero;fill:rgb(0%,0%,0%);fill-opacity:1;" d="M 10.054688 11.4375 C 10.5 11.4375 10.863281 11.074219 10.863281 10.625 L 10.863281 8.683594 C 10.863281 8.238281 10.5 7.875 10.054688 7.875 C 9.605469 7.875 9.242188 8.238281 9.242188 8.683594 L 9.242188 10.625 C 9.242188 11.074219 9.605469 11.4375 10.054688 11.4375 Z M 10.054688 11.4375 "/>
<path style=" stroke:none;fill-rule:nonzero;fill:rgb(0%,0%,0%);fill-opacity:1;" d="M 10.054688 23.574219 C 9.605469 23.574219 9.242188 23.9375 9.242188 24.382812 L 9.242188 26.164062 C 9.242188 26.609375 9.605469 26.972656 10.054688 26.972656 C 10.5 26.972656 10.863281 26.609375 10.863281 26.164062 L 10.863281 24.382812 C 10.863281 23.9375 10.5 23.574219 10.054688 23.574219 Z M 10.054688 23.574219 "/>
<path style=" stroke:none;fill-rule:nonzero;fill:rgb(0%,0%,0%);fill-opacity:1;" d="M 16.042969 17.585938 C 16.042969 18.03125 16.402344 18.394531 16.851562 18.394531 L 18.632812 18.394531 C 19.078125 18.394531 19.441406 18.03125 19.441406 17.585938 C 19.441406 17.140625 19.078125 16.777344 18.632812 16.777344 L 16.851562 16.777344 C 16.402344 16.777344 16.042969 17.140625 16.042969 17.585938 Z M 16.042969 17.585938 "/>
<path style=" stroke:none;fill-rule:nonzero;fill:rgb(0%,0%,0%);fill-opacity:1;" d="M 1.152344 18.394531 L 3.09375 18.394531 C 3.539062 18.394531 3.902344 18.03125 3.902344 17.585938 C 3.902344 17.140625 3.539062 16.777344 3.09375 16.777344 L 1.152344 16.777344 C 0.703125 16.777344 0.34375 17.140625 0.34375 17.585938 C 0.34375 18.03125 0.703125 18.394531 1.152344 18.394531 Z M 1.152344 18.394531 "/>
<path style=" stroke:none;fill-rule:nonzero;fill:rgb(0%,0%,0%);fill-opacity:1;" d="M 15.429688 21.847656 C 15.113281 21.53125 14.601562 21.53125 14.285156 21.847656 C 13.96875 22.164062 13.96875 22.675781 14.285156 22.992188 L 15.585938 24.292969 C 15.742188 24.449219 15.949219 24.53125 16.15625 24.53125 C 16.363281 24.53125 16.570312 24.449219 16.730469 24.292969 C 17.046875 23.976562 17.046875 23.464844 16.730469 23.148438 Z M 15.429688 21.847656 "/>
<path style=" stroke:none;fill-rule:nonzero;fill:rgb(0%,0%,0%);fill-opacity:1;" d="M 4.496094 13.203125 C 4.65625 13.363281 4.863281 13.441406 5.070312 13.441406 C 5.277344 13.441406 5.484375 13.363281 5.640625 13.203125 C 5.957031 12.890625 5.957031 12.375 5.640625 12.058594 L 4.339844 10.761719 C 4.023438 10.445312 3.511719 10.445312 3.195312 10.761719 C 2.878906 11.078125 2.878906 11.589844 3.195312 11.90625 Z M 4.496094 13.203125 "/>
<path style=" stroke:none;fill-rule:nonzero;fill:rgb(0%,0%,0%);fill-opacity:1;" d="M 14.855469 13.441406 C 15.0625 13.441406 15.269531 13.363281 15.429688 13.203125 L 16.730469 11.90625 C 17.046875 11.589844 17.046875 11.078125 16.730469 10.761719 C 16.414062 10.445312 15.902344 10.445312 15.585938 10.761719 L 14.285156 12.058594 C 13.96875 12.375 13.96875 12.890625 14.285156 13.203125 C 14.441406 13.363281 14.648438 13.441406 14.855469 13.441406 Z M 14.855469 13.441406 "/>
<path style=" stroke:none;fill-rule:nonzero;fill:rgb(0%,0%,0%);fill-opacity:1;" d="M 4.339844 24.292969 L 5.640625 22.992188 C 5.957031 22.675781 5.957031 22.164062 5.640625 21.847656 C 5.324219 21.53125 4.8125 21.53125 4.496094 21.847656 L 3.195312 23.148438 C 2.878906 23.464844 2.878906 23.976562 3.195312 24.292969 C 3.355469 24.449219 3.5625 24.53125 3.769531 24.53125 C 3.976562 24.53125 4.183594 24.449219 4.339844 24.292969 Z M 4.339844 24.292969 "/>
<path style=" stroke:none;fill-rule:nonzero;fill:rgb(0%,0%,0%);fill-opacity:1;" d="M 62.5625 22.878906 C 62.121094 22.945312 61.816406 23.359375 61.882812 23.800781 C 61.914062 23.992188 61.933594 24.121094 61.953125 24.230469 C 61.992188 24.457031 62.007812 24.5625 62.042969 24.992188 C 62.074219 25.417969 62.429688 25.738281 62.847656 25.738281 C 62.867188 25.738281 62.890625 25.738281 62.910156 25.738281 C 63.355469 25.703125 63.6875 25.316406 63.65625 24.871094 C 63.621094 24.386719 63.59375 24.234375 63.546875 23.957031 C 63.53125 23.859375 63.511719 23.738281 63.484375 23.558594 C 63.417969 23.117188 63.007812 22.8125 62.5625 22.878906 Z M 62.5625 22.878906 "/>
<path style=" stroke:none;fill-rule:nonzero;fill:rgb(0%,0%,0%);fill-opacity:1;" d="M 59.804688 17.421875 C 60.066406 17.898438 60.308594 18.398438 60.527344 18.910156 C 60.78125 19.496094 61.003906 20.113281 61.199219 20.746094 C 61.304688 21.09375 61.625 21.320312 61.972656 21.320312 C 62.050781 21.320312 62.128906 21.308594 62.207031 21.28125 C 62.636719 21.152344 62.875 20.699219 62.746094 20.273438 C 62.535156 19.585938 62.289062 18.914062 62.019531 18.277344 C 61.777344 17.714844 61.511719 17.164062 61.222656 16.644531 C 60.453125 15.238281 59.511719 13.984375 58.425781 12.90625 C 58.109375 12.59375 57.59375 12.59375 57.28125 12.914062 C 56.964844 13.230469 56.96875 13.742188 57.285156 14.058594 C 58.261719 15.023438 59.109375 16.15625 59.804688 17.421875 Z M 59.804688 17.421875 "/>
</g>
</svg>
