<?xml version="1.0" ?><svg data-name="Layer 3" id="Layer_3" viewBox="0 0 64 64" xmlns="http://www.w3.org/2000/svg"><title/><path d="M62,42H51a1,1,0,0,0-.707.293L44.586,48H32V47a1,1,0,0,0-.553-.9L28,44.382V34a1,1,0,0,0-.341-.752L20,26.546V23.281l2.757.689A1,1,0,0,0,23,24h7.78a2.986,2.986,0,0,0,1.27.831l2.959,21.307,1.982-.276L34.065,24.8A3,3,0,0,0,36,22V20a3,3,0,0,0-3-3l-.018,0-.991-7.14-1.982.276,1.055,7.59A2.917,2.917,0,0,0,30.78,18H24.172l-6.8-2.414c-.185-.169-.372-.335-.574-.486l-.8-.6V13h1a1,1,0,0,0,1-1V7h4V5H17.9A5,5,0,0,0,8,6V8a4.977,4.977,0,0,0,2,3.974V14H2a1,1,0,0,0-1,1V30a1,1,0,0,0,1,1H8v1a3.006,3.006,0,0,0,2,2.829V55H8a1,1,0,0,0-.707.293l-6,6A1,1,0,0,0,2,63H62a1,1,0,0,0,1-1V43A1,1,0,0,0,62,42ZM30,48H24V46h2.764L30,47.618ZM17.873,52.713,16.052,51.5l1.516-15.919L22,38.535V48.586ZM12,49h2.281l-.19,2H12Zm12-7h2v2H24ZM34,20v2a1,1,0,0,1-2,0V20a1,1,0,0,1,2,0ZM24,20h6v2H23.123l-3.14-.785a7.965,7.965,0,0,0-.621-2.8l4.3,1.528A1,1,0,0,0,24,20Zm-8-9H13a3,3,0,0,1-3-3V7h6ZM13,3a3,3,0,0,1,2.816,2H10.184A3,3,0,0,1,13,3ZM10,16v2H5v2h5v5H3V16ZM3,27h7v2H3Zm8,4a1,1,0,0,0,1-1V20h2v9h2V19a1,1,0,0,0-1-1H12V12.9a5,5,0,0,0,1,.1h1v2a1,1,0,0,0,.4.8l1.2.9A6.029,6.029,0,0,1,18,21.5V27a1,1,0,0,0,.341.752L26,34.454V40H24V38a1,1,0,0,0-.445-.832l-5.771-3.847L18,31.1,16,30.905,14.472,47H12V34a1,1,0,0,0-1-1,1,1,0,0,1-1-1V31Zm1,22h2.7l1.733,1.155L15.586,55H12Zm49,8H4.414l4-4H16a1,1,0,0,0,.707-.293L23.414,50H45a1,1,0,0,0,.707-.293L51.414,44H61Z"/><path d="M42.586,54H35a1,1,0,0,0-.707.293l-3,3,1.414,1.414L35.414,56H43a1,1,0,0,0,.707-.293l2-2-1.414-1.414Z"/><path d="M45,13H58a3,3,0,0,0,2.953-2.531,3.988,3.988,0,1,0-5.546-5.194,3.952,3.952,0,0,0-.487-.17A5,5,0,0,0,45.1,5a4,4,0,1,0-.1,8ZM59,5a1.99,1.99,0,0,1,1.487,3.324,3,3,0,0,0-3-1.28,3.972,3.972,0,0,0-.406-.578A2,2,0,0,1,59,5ZM45,7a1.972,1.972,0,0,1,.678.129,1,1,0,0,0,1.34-.985C47.017,6.112,47,6.031,47,6a3,3,0,0,1,6,0,1,1,0,0,0,1,1,1.987,1.987,0,0,1,1.942,1.548,1,1,0,0,0,1.518.614A1,1,0,1,1,58,11H45a2,2,0,0,1,0-4Z"/><path d="M45,32.414l3.293,3.293a1,1,0,0,0,1.414,0L51,34.414l3.293,3.293a1,1,0,0,0,1.414,0L58,35.414l3.293,3.293,1.414-1.414-12-12a1,1,0,0,0-1.414,0l-12,12,1.414,1.414Zm5-5L56.586,34,55,35.586l-3.293-3.293a1,1,0,0,0-1.414,0L49,33.586,46.414,31Z"/></svg>