<?xml version="1.0" ?><svg id="Layer_1" style="enable-background:new 0 0 512 512;" version="1.1" viewBox="0 0 512 512" xml:space="preserve" xmlns="http://www.w3.org/2000/svg" xmlns:xlink="http://www.w3.org/1999/xlink"><g id="XMLID_1_"><g id="XMLID_5323_"><g id="XMLID_655_"><path d="M245,137.8c-2.8,0-5-2.2-5-5c0-6.1-4.9-11-11-11c-2.8,0-5-2.2-5-5s2.2-5,5-5c6.1,0,11-4.9,11-11     c0-2.8,2.2-5,5-5s5,2.2,5,5c0,6.1,4.9,11,11,11c2.8,0,5,2.2,5,5s-2.2,5-5,5c-6.1,0-11,4.9-11,11C250,135.5,247.7,137.8,245,137.8     z M242.6,116.8c0.9,0.7,1.7,1.5,2.4,2.4c0.7-0.9,1.5-1.7,2.4-2.4c-0.9-0.7-1.7-1.5-2.4-2.4C244.2,115.2,243.4,116,242.6,116.8z" id="XMLID_5463_"/></g><g id="XMLID_826_"><path d="M326.1,279.5c-2.8,0-5-2.2-5-5c0-6.1-4.9-11-11-11c-2.8,0-5-2.2-5-5c0-2.8,2.2-5,5-5     c6.1,0,11-4.9,11-11c0-2.8,2.2-5,5-5s5,2.2,5,5c0,6.1,4.9,11,11,11c2.8,0,5,2.2,5,5c0,2.8-2.2,5-5,5c-6.1,0-11,4.9-11,11     C331.1,277.3,328.9,279.5,326.1,279.5z M323.7,258.5c0.9,0.7,1.7,1.5,2.4,2.4c0.7-0.9,1.5-1.7,2.4-2.4c-0.9-0.7-1.7-1.5-2.4-2.4     C325.4,256.9,324.6,257.8,323.7,258.5z" id="XMLID_5460_"/></g><g id="XMLID_827_"><path d="M89.3,377.8c-2.8,0-5-2.2-5-5c0-6.1-4.9-11-11-11c-2.8,0-5-2.2-5-5s2.2-5,5-5c6.1,0,11-4.9,11-11     c0-2.8,2.2-5,5-5s5,2.2,5,5c0,6.1,4.9,11,11,11c2.8,0,5,2.2,5,5s-2.2,5-5,5c-6.1,0-11,4.9-11,11C94.3,375.5,92,377.8,89.3,377.8z      M86.9,356.8c0.9,0.7,1.7,1.5,2.4,2.4c0.7-0.9,1.5-1.7,2.4-2.4c-0.9-0.7-1.7-1.5-2.4-2.4C88.5,355.2,87.7,356,86.9,356.8z" id="XMLID_5457_"/></g><g id="XMLID_2886_"><path d="M365.1,114.2c-0.4,0-0.8,0-1.1-0.1c-1.6-0.4-2.9-1.4-3.5-3l-9-23.1h-7.6c-1.5,0-3-0.8-3.9-2     c-0.9-1.2-1.3-2.8-0.9-4.3l4-16.3l-3.7-21.7l9.9-1.7l3.9,22.7c0.1,0.7,0.1,1.5-0.1,2.2L350.2,78h4.7c2.1,0,3.9,1.2,4.7,3.1     l7.5,19.5l32-29.8l6.8,7.3l-37.4,34.8C367.6,113.8,366.3,114.2,365.1,114.2z" id="XMLID_5456_"/></g><g id="XMLID_1362_"><path d="M486.5,274.3c-0.3,0-0.5,0-0.8-0.1l-115.9-18.3c-1.5-0.2-2.9-1.2-3.6-2.6c-0.7-1.4-0.8-3-0.2-4.4     l10.1-22.3c1.4-3.2,2.7-6.5,3.9-9.7l9.4,3.3c-1.2,3.6-2.7,7.1-4.2,10.6l-7.4,16.3l103.6,16.4V225c0-40.7-11.5-80.5-33.2-114.9     c-4.7-7.5-12.1-12.6-20.7-14.4c-8.6-1.8-17.4-0.1-24.8,4.8c-12,8.1-17.2,23.3-12.7,37c3.2,9.8,5.3,19.9,6.1,30.2l-10,0.8     c-0.8-9.5-2.6-18.8-5.6-27.8c-5.9-18,0.9-37.9,16.6-48.5c9.6-6.5,21.1-8.7,32.4-6.3c11.3,2.4,20.9,9.1,27.1,18.9     c22.7,36.1,34.7,77.6,34.7,120.3v44.3c0,1.5-0.6,2.9-1.8,3.8C488.8,273.9,487.7,274.3,486.5,274.3z" id="XMLID_5455_"/></g><g id="XMLID_435_"><path d="M402.5,79.4C402.5,79.4,402.5,79.4,402.5,79.4c-1.5,0-2.8-0.6-3.8-1.7l-24.6-28.3L344,47.8     c-1-0.1-2-0.4-2.8-1l-25.4-19c-1.5-1.1-2.3-3-1.9-4.9s1.7-3.4,3.5-3.9l57.1-17.1c17.9-5.3,36.9,2.2,46.1,18.5     c8.4,14.7,6.6,33.2-4.6,46l-9.8,11.2C405.3,78.7,403.9,79.4,402.5,79.4z M346,37.9l30.8,1.5c1.4,0.1,2.6,0.7,3.5,1.7l22.2,25.6     l6-6.9c8.4-9.6,9.7-23.5,3.4-34.5c-6.9-12.2-21.2-17.9-34.6-13.9l-47.6,14.2L346,37.9z" id="XMLID_5452_"/></g><g id="XMLID_434_"><rect height="30" id="XMLID_5451_" transform="matrix(0.8946 0.4469 -0.4469 0.8946 121.6108 -139.8916)" width="10" x="352.3" y="172.8"/></g><g id="XMLID_1356_"><path d="M164.8,120.9c-1.2,0-2.4-0.4-3.3-1.2l-16.1-14.1l6.6-7.5l11,9.6l7.7-16.9c0.8-1.8,2.6-2.8,4.6-2.8h0.6     l-1.6-12.7c0-0.4-0.1-0.8,0-1.2l0.9-7.8l9.9,1.1l-0.8,7.2l2.2,17.6c0.2,1.4-0.3,3-1.2,4c-0.9,1.1-2.3,1.8-3.7,1.8h-3l-9.1,20.1     c-0.7,1.4-1.9,2.4-3.5,2.8C165.5,120.9,165.2,120.9,164.8,120.9z" id="XMLID_5450_"/></g><g id="XMLID_1363_"><path d="M92.5,298.8c-1,0-2-0.3-2.8-0.9c-1.3-0.9-2.1-2.3-2.1-3.8l-2.7-46.4l10-0.6l2.3,40l81.4-25.3V217     c0-33-15.8-64.4-42.4-84.1c-7.8-5.8-17.9-7.3-27.1-4c-9.7,3.4-16.9,11.9-18.8,22l-9.8-1.9c2.6-13.6,12.3-24.9,25.3-29.5     c12.3-4.4,25.9-2.3,36.4,5.4c29.1,21.5,46.4,55.9,46.4,92.1v48.5c0,2.2-1.4,4.1-3.5,4.8l-91,28.3C93.5,298.7,93,298.8,92.5,298.8     z" id="XMLID_5449_"/></g><g id="XMLID_5_"><rect height="10" id="XMLID_5448_" transform="matrix(0.4984 0.867 -0.867 0.4984 296.3726 -103.3424)" width="30" x="222.5" y="199.4"/></g><g id="XMLID_83_"><rect height="30.6" id="XMLID_5447_" transform="matrix(0.7581 0.6522 -0.6522 0.7581 171.5253 -2.5977)" width="10" x="84.3" y="214.6"/></g><g id="XMLID_24_"><path d="M145.8,120.7c-0.8,0-1.6-0.2-2.3-0.6L97,95.5c-2.1-1.1-3.1-3.6-2.4-5.9l13.6-45     c6.5-21.4,26.6-35.4,48.9-34c21.9,1.4,40,17.4,44,39l3.7,19.5c0.3,1.6-0.2,3.3-1.3,4.4c-1.1,1.2-2.8,1.7-4.4,1.4l-38.1-6.3     l-10.2,48.1c-0.3,1.5-1.4,2.8-2.8,3.5C147.2,120.6,146.5,120.7,145.8,120.7z M105.3,88.5l36.9,19.6l9.8-46.2     c0.6-2.6,3.1-4.3,5.7-3.9l35.8,5.9l-2.3-12.5c-3.2-17.1-17.5-29.8-34.9-30.9c-17.7-1.1-33.6,9.9-38.7,26.9L105.3,88.5z" id="XMLID_5444_"/></g><g id="XMLID_1358_"><g id="XMLID_1357_"><path d="M199.3,248.7c-3.5,0-6.9-1.4-9.5-4.1l-10-10.5l7.2-6.9l10,10.5c1,1,2.6,1.3,3.8,0.5l49.9-30.1      c2.3-1.4,3.9-3.6,4.5-6.2c0.6-2.6,0.2-5.3-1.1-7.6c-1.4-2.3-3.6-3.9-6.2-4.5s-5.3-0.2-7.6,1.1l-34.8,21c-2,1.2-4.6,0.9-6.2-0.8      l-25.8-27.1l7.2-6.9l23,24.2l31.4-19c4.6-2.8,9.9-3.6,15.1-2.3c5.2,1.3,9.6,4.5,12.3,9.1c2.8,4.6,3.6,9.9,2.3,15.1      c-1.3,5.2-4.5,9.6-9.1,12.3l-49.9,30.1C204,248,201.6,248.7,199.3,248.7z" id="XMLID_5443_"/></g></g><g id="XMLID_1361_"><path d="M435.5,511.8c-1.6,0-3.1-0.8-4.1-2.1c-4.9-6.9-4.2-16.2,1.6-22.3l7.3-7.6l-41.6-74.6     c-4.1-7.3-6-15.5-5.6-23.9l3.7-84.4l-41,47.3c-3.4,3.9-4.5,9.5-2.9,14.4l24.1,74.6c0.4,1.4,0.3,2.8-0.4,4.1l-28.8,49.4     c-1.1,1.9-3.2,2.8-5.3,2.4c-9.1-1.9-15-10.8-13.1-19.9l6.2-30l-29.2-85.3c-5.1-14.8-2-31.4,8-43.4l52.4-62.7l7.7,6.4l-52.4,62.7     c-7.8,9.3-10.2,22.3-6.3,33.8l29.6,86.6c0.3,0.8,0.3,1.8,0.2,2.6l-6.5,31.3c-0.5,2.5,0.4,5,2.2,6.6l25.4-43.6l-23.4-72.5     c-2.7-8.3-0.8-17.5,4.9-24.1l50.4-58.1c1.4-1.6,3.7-2.2,5.6-1.4c2,0.8,3.2,2.7,3.1,4.9l-4.4,98.7c-0.3,6.5,1.2,12.9,4.4,18.6     l43.4,77.9c1.1,1.9,0.8,4.3-0.8,5.9l-9.8,10.3c-1.6,1.7-2.3,4-2,6.2l41-14.3L432,402c-3.9-6.9-4.2-15.4-1-22.6l50.9-112.3     l9.1,4.1l-50.9,112.3c-2,4.3-1.8,9.4,0.6,13.5l50.2,89.4c0.7,1.3,0.8,2.8,0.3,4.2c-0.5,1.4-1.6,2.5-3,3l-51,17.8     C436.6,511.7,436,511.8,435.5,511.8z" id="XMLID_5442_"/></g><g id="XMLID_728_"><path d="M160.5,511.8H92.4c-1.6,0-3.1-0.8-4.1-2.1c-0.9-1.3-1.2-3-0.6-4.5l38.8-111.2c1.3-3.6,1.1-7.5-0.4-11     l-38.2-87.2l9.2-4l38.2,87.2c2.5,5.8,2.8,12.3,0.7,18.3L99.5,501.8h55.9c-0.5-3.8-2.7-7.1-5.9-9.3l-5.6-3.7     c-9-5.9-12.8-17.1-9.3-27.3l23.9-68.3c1.7-4.9,2.3-10.2,1.8-15.3l-6.8-63.8c-0.2-2.2,1-4.2,3-5.1c2-0.9,4.3-0.4,5.8,1.3     l44.5,50.3c4.5,5.1,6.8,12,6.2,18.8l-7.1,79.9l34,31.2c0-0.9-0.3-1.9-0.9-2.7L228.3,472c-1.9-2.8-2.8-6.3-2.5-9.7l7.6-95.4     c0.6-7.6-1.3-15.2-5.4-21.6l-36.5-57.1l8.4-5.4l36.5,57.1c5.3,8.2,7.7,18.1,6.9,27.8l-7.6,95.4c-0.1,1.2,0.2,2.4,0.9,3.4     l10.5,15.8c4.3,6.4,3.1,15.1-2.8,20.1c-1.9,1.6-4.8,1.6-6.6-0.1L197.1,465c-1.1-1.1-1.7-2.6-1.6-4.1l7.3-82.4     c0.4-4.1-1-8.2-3.7-11.3L165,328.7l5.2,48.2c0.7,6.6-0.1,13.4-2.3,19.6L144,464.9c-2,5.8,0.1,12.2,5.3,15.6l5.6,3.7     c6.6,4.3,10.6,11.6,10.6,19.6v3.1C165.5,509.5,163.3,511.8,160.5,511.8z" id="XMLID_5441_"/></g><g id="XMLID_734_"><path d="M435.5,511.8c-1.6,0-3.1-0.8-4.1-2.1c-4.9-6.9-4.2-16.2,1.6-22.3l9.8-10.3c1.2-1.2,3-1.8,4.6-1.4     l40,8.4c2.2,0.5,3.8,2.3,4,4.6c0.1,2.2-1.2,4.3-3.3,5l-51,17.8C436.6,511.7,436,511.8,435.5,511.8z M448.2,486l-7.9,8.3     c-1.6,1.7-2.3,4-2,6.2l29.7-10.3L448.2,486z" id="XMLID_5438_"/></g><g id="XMLID_730_"><path d="M343.4,489.1c-0.3,0-0.7,0-1-0.1c-9.1-1.9-15-10.8-13.1-19.9l6.5-31.3c0.4-2.1,2.1-3.7,4.3-3.9     l31.5-4.1c1.9-0.2,3.8,0.6,4.8,2.2c1.1,1.6,1.1,3.6,0.2,5.3l-28.8,49.4C346.8,488.2,345.2,489.1,343.4,489.1z M344.9,443.3     l-5.8,27.8c-0.5,2.5,0.4,5,2.2,6.6l21.4-36.7L344.9,443.3z" id="XMLID_5435_"/></g><g id="XMLID_437_"><g id="XMLID_727_"><path d="M106.4,259.5c-3.3,0-6.6-0.8-9.7-2.5c0,0,0,0,0,0l-69.5-38.8c-4.1-2.3-6.7-6.6-6.7-11.4      c0-3.7,1.6-7.2,4.4-9.7L88,140.8c4-3.6,9.1-5.3,14.5-5c5.3,0.3,10.2,2.7,13.8,6.7c7.3,8.2,6.6,20.9-1.6,28.2l-34.8,31l36.4,20.3      c9.6,5.4,13.1,17.6,7.7,27.2C120.2,255.8,113.4,259.5,106.4,259.5z M101.5,248.2c4.8,2.7,10.9,1,13.6-3.9c1.3-2.3,1.6-5,0.9-7.6      c-0.7-2.6-2.4-4.7-4.7-6L68.8,207c-1.4-0.8-2.4-2.2-2.5-3.8c-0.2-1.6,0.4-3.2,1.6-4.3l40.1-35.7c4.1-3.7,4.5-10,0.8-14.1      c-1.8-2-4.2-3.2-6.9-3.3c-2.7-0.2-5.2,0.7-7.2,2.5l-63.1,56.2c-0.6,0.6-1,1.4-1,2.2c0,1.1,0.6,2.1,1.5,2.6L101.5,248.2      L101.5,248.2z" id="XMLID_5432_"/></g></g><g id="XMLID_436_"><path d="M160.5,511.8H92.4c-1.6,0-3.1-0.8-4.1-2.1c-0.9-1.3-1.2-3-0.6-4.5l16.2-46.5c0.8-2.2,2.9-3.5,5.2-3.3     l30.7,2.9c1.5,0.1,2.9,1,3.7,2.3c0.8,1.3,1,2.9,0.5,4.3c-2,5.8,0.1,12.2,5.3,15.6l5.6,3.7c6.6,4.3,10.6,11.6,10.6,19.6v3.1     C165.5,509.5,163.3,511.8,160.5,511.8z M99.5,501.8h55.9c-0.5-3.8-2.7-7.1-5.9-9.3l-5.6-3.7c-7.2-4.7-11.1-12.9-10.5-21.2     l-21.3-2L99.5,501.8z" id="XMLID_5429_"/></g><g id="XMLID_433_"><path d="M241.1,503.5c-1.2,0-2.4-0.4-3.4-1.3L197.1,465c-1.1-1.1-1.7-2.6-1.6-4.1l1.9-21c0.1-1.5,1-2.9,2.3-3.8     c1.3-0.8,2.9-1,4.4-0.5l29.4,10.2c2.2,0.7,3.5,2.9,3.3,5.1l-1,12.1c-0.1,1.2,0.2,2.4,0.9,3.4l10.5,15.8     c4.3,6.4,3.1,15.1-2.8,20.1C243.4,503.1,242.3,503.5,241.1,503.5z M205.7,459.3l34,31.2c0-0.9-0.3-1.9-0.9-2.7L228.3,472     c-1.9-2.8-2.8-6.3-2.5-9.7l0.7-8.3l-19.7-6.8L205.7,459.3z" id="XMLID_5426_"/></g><g id="XMLID_2_"><g id="XMLID_27_"><path d="M416.4,238c-2.7,0-5.4-0.6-7.8-1.9c0,0,0,0,0,0l-69.7-35.3c-9.8-5-13.8-17-8.8-26.9      c2.4-4.8,6.5-8.3,11.6-10c5.1-1.7,10.5-1.3,15.3,1.2l42,21.3l7.9-59.8c0.7-5.4,3.5-10.1,7.9-13.4c4.4-3.2,9.7-4.6,15.1-3.7      c10.6,1.7,18.1,11.8,16.6,22.4l-12.7,91.1c-0.8,5.8-4.4,10.7-9.7,13.2C421.6,237.5,419,238,416.4,238z M413.1,227.3      c2,1,4.5,1.1,6.5,0.1c2.2-1.1,3.8-3.2,4.1-5.6l12.7-91.1c0.7-5.3-3-10.3-8.3-11.2c-2.7-0.4-5.3,0.2-7.5,1.8      c-2.2,1.6-3.6,4-3.9,6.7l-8.8,66.8c-0.2,1.6-1.2,3-2.6,3.8c-1.4,0.8-3.1,0.8-4.6,0l-48.3-24.4c-4.9-2.5-10.9-0.5-13.4,4.4      c-1.2,2.4-1.4,5.1-0.6,7.6c0.8,2.5,2.6,4.6,5,5.8L413.1,227.3z" id="XMLID_5423_"/></g></g></g></g></svg>