<?xml version="1.0" ?><svg viewBox="0 0 128 128" xmlns="http://www.w3.org/2000/svg"><title/><path d="M126.5,125H118V62h5a2.0059,2.0059,0,0,0,2-2V50.8531A6.996,6.996,0,0,0,119.4263,44C112.3193,42.5249,97.3441,42.6854,84,40c-6.7061-1.35-11.3715-6.7409-18.5-7.4266V29.08a5.5617,5.5617,0,0,1,3.4209-5.0855A12.5063,12.5063,0,1,0,51.538,11.7857a3.9914,3.9914,0,1,0,2.9987.0233,9.4957,9.4957,0,1,1,13.2026,9.4273A8.5587,8.5587,0,0,0,62.5,29.08v3.4938C55.3715,33.2591,50.706,38.65,44,40c-13.5828,2.7335-27.7142,2.5427-35.3245,4A6.9913,6.9913,0,0,0,3,50.8735V60a2,2,0,0,0,2,2h5v63H1.5a1.5,1.5,0,0,0,0,3h125a1.5,1.5,0,0,0,0-3ZM53,16.5a1,1,0,1,1,1-1A1.0009,1.0009,0,0,1,53,16.5ZM6,50.8735a4,4,0,0,1,3.24-3.927,120.3883,120.3883,0,0,1,12.1147-1.2531A186.9077,186.9077,0,0,0,44.5919,42.941a31.683,31.683,0,0,0,9.2653-3.8977C57.131,37.2211,60.2233,35.5,64,35.5s6.869,1.7211,10.1427,3.5433a31.6847,31.6847,0,0,0,9.2654,3.8977,187.9185,187.9185,0,0,0,23.099,2.7048,112.3826,112.3826,0,0,1,12.31,1.2916A4.0136,4.0136,0,0,1,122,50.8531V59H6ZM83,125V72h26v53Zm29,0V70a1,1,0,0,0-1-1H81a1,1,0,0,0-1,1v55H13V62H115v63Z"/><path d="M75,69H17a1,1,0,0,0-1,1v48a1,1,0,0,0,1,1H75a1,1,0,0,0,1-1V70A1,1,0,0,0,75,69Zm-2,47H59.5v-2H63a3,3,0,0,0,3-3v-1.3773a10,10,0,0,0-.5132-3.1622L64.42,103.26a5,5,0,0,1-.1595-2.5618l1.3933-6.9666a2,2,0,0,0-1.3287-2.29L60,90V89c0-.0135-.0071-.0248-.0077-.0381A5.0579,5.0579,0,0,0,62.5,84.5a4.525,4.525,0,1,0-9,0,5.0579,5.0579,0,0,0,2.5077,4.4619C56.0071,88.9752,56,88.9865,56,89v1l-4.325,1.4417a2,2,0,0,0-1.3287,2.29l1.3933,6.9666a5,5,0,0,1-.16,2.5618l-1.0669,3.2008A10,10,0,0,0,50,109.6227V111a3,3,0,0,0,3,3h3.5v2h-17v-4H45a1,1,0,0,0,1-1v-5.3773a10,10,0,0,0-.5132-3.1622L44.42,99.26a5,5,0,0,1-.16-2.5618l1.3933-6.9666a2,2,0,0,0-1.3287-2.29L40,86V85a.9494.9494,0,0,0-.0377-.1867,5.0544,5.0544,0,0,0,2.5377-4.48,4.77,4.77,0,0,0-4.5-5,4.77,4.77,0,0,0-4.5,5,5.0544,5.0544,0,0,0,2.5377,4.48A.9494.9494,0,0,0,36,85v1l-4.325,1.4417a2,2,0,0,0-1.3287,2.29L31.74,96.6979A5,5,0,0,1,31.58,99.26l-1.0669,3.2008A10,10,0,0,0,30,105.6227V111a1,1,0,0,0,1,1h5.5v4H19V72H73ZM54.6813,100.11l-1.22-6.1011,3.4876-1.1625A2.9927,2.9927,0,0,0,58,92.2362a2.9927,2.9927,0,0,0,1.0513.61l3.4876,1.1625-1.22,6.1011a8.0114,8.0114,0,0,0,.2552,4.0987l1.0669,3.2009A6.9859,6.9859,0,0,1,63,109.6227V111H53v-1.3773a6.9843,6.9843,0,0,1,.3593-2.2136l1.0668-3.2006A8.0123,8.0123,0,0,0,54.6813,100.11ZM58,86.5c-.8131,0-1.5-.9159-1.5-2s.6869-2,1.5-2,1.5.9159,1.5,2S58.8131,86.5,58,86.5ZM34.6813,96.11l-1.22-6.1011,3.4876-1.1625A2.9927,2.9927,0,0,0,38,88.2362a2.9927,2.9927,0,0,0,1.0513.61l3.4876,1.1625-1.22,6.1011a8.0114,8.0114,0,0,0,.2552,4.0987l1.0669,3.2009A6.9859,6.9859,0,0,1,43,105.6227V109H33v-3.3773a6.9843,6.9843,0,0,1,.3593-2.2136l1.0668-3.2006A8.0123,8.0123,0,0,0,34.6813,96.11ZM38,82.3333c-.8131,0-1.5-.9159-1.5-2s.6869-2,1.5-2,1.5.9159,1.5,2S38.8131,82.3333,38,82.3333Z"/><path d="M67.1367,48a1.5,1.5,0,0,0-1.5-1.5h-7a1.5,1.5,0,1,0,0,3h2V56a1.5,1.5,0,0,0,3,0V49.5h2A1.5,1.5,0,0,0,67.1367,48Z"/><path d="M71.1367,48a1.5,1.5,0,0,0-3,0v8a1.5,1.5,0,0,0,3,0Z"/><path d="M94.7783,48v8a1.5,1.5,0,0,0,1.5,1.5h5.3584a1.5,1.5,0,1,0,0-3H97.7783v-1h1.5a1.5,1.5,0,0,0,0-3h-1.5v-1h3.5a1.5,1.5,0,0,0,0-3h-5A1.5,1.5,0,0,0,94.7783,48Z"/><path d="M41.1367,46.5557a5.5,5.5,0,1,0,5.5,5.5A5.5065,5.5065,0,0,0,41.1367,46.5557Zm0,8a2.5,2.5,0,1,1,2.5-2.5A2.5026,2.5026,0,0,1,41.1367,54.5557Z"/><path d="M78.1367,46.5557a5.5,5.5,0,1,0,2.5741,10.357l.6818.3895a1.4972,1.4972,0,0,0,1.5421-2.5661,5.4934,5.4934,0,0,0-4.798-8.18Zm-2.5,5.5a2.5,2.5,0,0,1,5,0,2.4675,2.4675,0,0,1-.3108,1.1821l-.945-.54a1.4974,1.4974,0,0,0-2.1968,1.6673A2.5021,2.5021,0,0,1,75.6367,52.0557Z"/><path d="M56.2344,47.8262a1.5,1.5,0,0,0-3,0v5.375a1.2989,1.2989,0,0,1-2.5977,0v-5.375a1.5,1.5,0,0,0-3,0v5.375a4.2989,4.2989,0,0,0,8.5977,0Z"/><path d="M93.376,47.8262a1.5,1.5,0,0,0-3,0v5.375a1.2989,1.2989,0,0,1-2.5977,0v-5.375a1.5,1.5,0,0,0-3,0v5.375a4.2989,4.2989,0,0,0,8.5977,0Z"/><path d="M24.8633,56a1.5,1.5,0,0,0,1.5,1.5h4.7734A3.4987,3.4987,0,0,0,34.0078,52a3.4987,3.4987,0,0,0-2.8711-5.5H26.3633a1.5,1.5,0,0,0-1.5,1.5Zm6.2734-2.5a.5.5,0,1,1,0,1H27.8633v-5h3.2734a.5.5,0,1,1,0,1,1.5,1.5,0,0,0,0,3Z"/><path d="M94.94,74.94l-6,6a1.5,1.5,0,1,0,2.121,2.121l6-6A1.5,1.5,0,0,0,94.94,74.94Z"/><path d="M98.9131,78.48l-.8076.8076a1.5,1.5,0,1,0,2.1211,2.1211l.8076-.8076A1.5,1.5,0,0,0,98.9131,78.48Z"/><path d="M94.57,82.8228,88.9131,88.48a1.5,1.5,0,1,0,2.1211,2.1211l5.6572-5.6568a1.5,1.5,0,1,0-2.1211-2.121Z"/><path d="M94,98.5H86a1.5,1.5,0,0,0,0,3h8a1.5,1.5,0,0,0,0-3Z"/></svg>