<?xml version="1.0" ?><svg enable-background="new 0 0 500 500" id="Layer_1" version="1.1" viewBox="0 0 500 500" xml:space="preserve" xmlns="http://www.w3.org/2000/svg" xmlns:xlink="http://www.w3.org/1999/xlink"><g><g><circle cx="314.992" cy="139.728" fill="none" r="37.012" stroke="#474747" stroke-linecap="round" stroke-linejoin="round" stroke-miterlimit="10" stroke-width="15"/><path d="    M244.428,172.2c-1.831,2.56-3.357,5.357-4.528,8.339l-11.957,30.454c-4.046,10.305-0.413,22.038,8.748,28.253l54.615,36.647    c7.468,5.067,17.675,2.623,22.039-5.277h0c3.666-6.636,1.934-14.955-4.076-19.576l-42.87-32.358" fill="none" stroke="#474747" stroke-linecap="round" stroke-linejoin="round" stroke-miterlimit="10" stroke-width="15"/><path d="    M344.515,187.414l-6.649,22.366l52.599,30.407c6.826,4.062,9.019,12.916,4.879,19.695l0,0c-3.957,6.477-12.293,8.722-18.967,5.107    l-38.511-20.148" fill="none" stroke="#474747" stroke-linecap="round" stroke-linejoin="round" stroke-miterlimit="10" stroke-width="15"/><path d="    M265.887,310.741c5.013,2.647,7.129,3.32,12.936,4.117l11.51,1.58l-63.045,41.413c-9.108,5.826-10.983,19.483-3.982,27.722l0,0    c5.829,6.86,15.855,8.303,23.383,3.367l77.124-50.775c11.572-7.588,12.721-24.119,2.31-33.234l-8.674-7.595" fill="none" stroke="#474747" stroke-linecap="round" stroke-linejoin="round" stroke-miterlimit="10" stroke-width="15"/><path d="    M240.546,249.866L240.546,249.866c-3.678,9.137-4.347,18.692-2.51,27.608c1.297,6.297,3.862,12.088,7.401,17.147" fill="none" stroke="#474747" stroke-linecap="round" stroke-linejoin="round" stroke-miterlimit="10" stroke-width="15"/><path d="    M298.563,355.367c-9.108,5.826-10.983,18.348-3.982,26.587l0,0c5.829,6.86,15.855,8.303,23.383,3.367l49.587-37.111    c8.341-6.242,13.38-15.947,13.687-26.361l0,0c0.328-11.115-4.771-21.695-13.67-28.364l-29.702-22.258" fill="none" stroke="#474747" stroke-linecap="round" stroke-linejoin="round" stroke-miterlimit="10" stroke-width="15"/><path d="    M176.389,335.65l-24.493-26.119c-9.72-10.365-15.129-24.041-15.129-38.25v0" fill="none" stroke="#474747" stroke-linecap="round" stroke-linejoin="round" stroke-miterlimit="10" stroke-width="15"/><path d="    M332.732,475.697L332.732,475.697c-12.891,2.798-26.304-1.378-35.328-11L194.339,354.791" fill="none" stroke="#474747" stroke-linecap="round" stroke-linejoin="round" stroke-miterlimit="10" stroke-width="15"/><path d="    M223.187,307.211l-16.842-17.96c-9.72-10.365-15.129-24.041-15.129-38.25v0" fill="none" stroke="#474747" stroke-linecap="round" stroke-linejoin="round" stroke-miterlimit="10" stroke-width="15"/><line fill="none" stroke="#474747" stroke-linecap="round" stroke-linejoin="round" stroke-miterlimit="10" stroke-width="15" x1="252.276" x2="240.376" y1="338.23" y2="325.466"/><path d="    M387.18,455.416L387.18,455.416c-12.891,2.798-26.304-1.378-35.328-11l-72.311-77.11" fill="none" stroke="#474747" stroke-linecap="round" stroke-linejoin="round" stroke-miterlimit="10" stroke-width="15"/><line fill="none" stroke="#474747" stroke-linecap="round" stroke-linejoin="round" stroke-miterlimit="10" stroke-width="15" x1="283.173" x2="145.765" y1="274.009" y2="357.273"/><line fill="none" stroke="#474747" stroke-linecap="round" stroke-linejoin="round" stroke-miterlimit="10" stroke-width="15" x1="342.783" x2="315.258" y1="237.888" y2="254.567"/><line fill="none" stroke="#474747" stroke-linecap="round" stroke-linejoin="round" stroke-miterlimit="10" stroke-width="15" x1="431.303" x2="398.666" y1="226.539" y2="246.316"/></g><line fill="none" stroke="#474747" stroke-linecap="round" stroke-linejoin="round" stroke-miterlimit="10" stroke-width="15" x1="49.839" x2="45.789" y1="127.974" y2="123.924"/><line fill="none" stroke="#474747" stroke-linecap="round" stroke-linejoin="round" stroke-miterlimit="10" stroke-width="15" x1="156.578" x2="67.114" y1="234.713" y2="145.249"/><line fill="none" stroke="#474747" stroke-linecap="round" stroke-linejoin="round" stroke-miterlimit="10" stroke-width="15" x1="51.154" x2="45.789" y1="45.289" y2="39.924"/><line fill="none" stroke="#474747" stroke-linecap="round" stroke-linejoin="round" stroke-miterlimit="10" stroke-width="15" x1="86.497" x2="68.614" y1="80.632" y2="62.749"/><line fill="none" stroke="#474747" stroke-linecap="round" stroke-linejoin="round" stroke-miterlimit="10" stroke-width="15" x1="165.42" x2="107.191" y1="159.555" y2="101.326"/><line fill="none" stroke="#474747" stroke-linecap="round" stroke-linejoin="round" stroke-miterlimit="10" stroke-width="15" x1="195.846" x2="185.659" y1="189.981" y2="179.794"/><line fill="none" stroke="#474747" stroke-linecap="round" stroke-linejoin="round" stroke-miterlimit="10" stroke-width="15" x1="164.624" x2="138.483" y1="63.759" y2="37.618"/><line fill="none" stroke="#474747" stroke-linecap="round" stroke-linejoin="round" stroke-miterlimit="10" stroke-width="15" x1="189.392" x2="181.497" y1="88.527" y2="80.632"/><line fill="none" stroke="#474747" stroke-linecap="round" stroke-linejoin="round" stroke-miterlimit="10" stroke-width="15" x1="260.566" x2="207.203" y1="159.701" y2="106.338"/></g></svg>