<?xml version="1.0" ?><svg id="Layer_30" style="enable-background:new 0 0 496 496;" version="1.1" viewBox="0 0 496 496" xml:space="preserve" xmlns="http://www.w3.org/2000/svg" xmlns:xlink="http://www.w3.org/1999/xlink"><g><path d="M413.33,432c-17.933,0-26.508-6.639-36.438-14.326C366.191,409.39,354.062,400,330.659,400   c-23.401,0-35.529,9.39-46.23,17.674C274.5,425.361,265.925,432,247.993,432c-17.931,0-26.506-6.639-36.435-14.326   C200.858,409.39,188.73,400,165.329,400c-23.4,0-35.529,9.39-46.229,17.674C109.171,425.361,100.596,432,82.664,432   c-17.931,0-26.506-6.639-36.435-14.326C35.529,409.39,23.401,400,0,400v16c17.931,0,26.506,6.639,36.435,14.326   C47.135,438.61,59.263,448,82.664,448s35.53-9.39,46.23-17.675c9.929-7.687,18.504-14.325,36.435-14.325   s26.506,6.639,36.435,14.326c10.7,8.284,22.828,17.674,46.229,17.674s35.529-9.39,46.23-17.674   c9.929-7.688,18.504-14.326,36.436-14.326c17.934,0,26.509,6.639,36.438,14.326C377.799,438.61,389.928,448,413.33,448   s35.531-9.39,46.232-17.674C469.492,422.639,478.067,416,496,416v-16c-23.402,0-35.531,9.39-46.232,17.674   C439.838,425.361,431.263,432,413.33,432z"/><path d="M413.33,480c-17.933,0-26.508-6.639-36.438-14.326C366.191,457.39,354.062,448,330.659,448   c-23.401,0-35.529,9.39-46.23,17.674C274.5,473.361,265.925,480,247.993,480c-17.931,0-26.506-6.639-36.435-14.326   C200.858,457.39,188.73,448,165.329,448c-23.4,0-35.529,9.39-46.229,17.674C109.171,473.361,100.596,480,82.664,480   c-17.931,0-26.506-6.639-36.435-14.326C35.529,457.39,23.401,448,0,448v16c17.931,0,26.506,6.639,36.435,14.326   C47.135,486.61,59.263,496,82.664,496s35.53-9.39,46.23-17.675c9.929-7.687,18.504-14.325,36.435-14.325   s26.506,6.639,36.435,14.326c10.7,8.284,22.828,17.674,46.229,17.674s35.529-9.39,46.23-17.674   c9.929-7.688,18.504-14.326,36.436-14.326c17.934,0,26.509,6.639,36.438,14.326C377.799,486.61,389.928,496,413.33,496   s35.531-9.39,46.232-17.674C469.492,470.639,478.067,464,496,464v-16c-23.402,0-35.531,9.39-46.232,17.674   C439.838,473.361,431.263,480,413.33,480z"/><path d="M480,368c0-15.175-10.618-27.916-24.813-31.187c-2.014-8.743-7.632-16.111-15.187-20.495V152h-16v-48h24.357L376,10.97   L303.643,104H328v48h-16v64h-48V96h16V48h-16V16h-24V0h-16v16h-24v32h-16v48h16v32h-48V80h-40V32H96v48H56v125.754l-16,4v123.19   v4.068C26.214,340.573,16,353.116,16,368H0v16h496v-16H480z M448,352c8.822,0,16,7.178,16,16H286.246l-0.664-2.657   c-1.554-6.213-4.565-11.734-8.59-16.281l3.738-9.344C283.577,332.6,290.37,328,298.036,328h19.729l3.753-11.255   C324.06,309.122,331.165,304,339.2,304h1.766c4.979,0,9.659,1.938,13.18,5.46l17.351,17.35l6.022-18.064   C380.06,301.122,387.165,296,395.2,296c8.569,0,16.005,5.806,18.084,14.119l4.47,17.881H424c8.822,0,16,7.178,16,16v8H448z    M120,208h16v106.938c-2.718,2.652-5.061,5.736-6.947,9.181c-2.496-3.139-5.567-5.799-9.053-7.821V208z M136,192v-48h80v153.954   c-6.243-6.289-14.784-9.954-24-9.954c-11.867,0-22.635,6.058-28.786,16h-0.217c-3.795,0-7.487,0.55-10.997,1.579V192H136z M232,232   h96v57.868c-10.035,3.424-18.169,11.344-21.66,21.817L306.234,312h-8.198c-14.246,0-26.871,8.547-32.162,21.774l-2.218,5.543   c-2.934-1.296-6.04-2.258-9.28-2.794l-2.412-9.649c-2.581-10.322-10.268-18.24-19.965-21.384V232z M376,37.03L415.643,88h-79.285   L376,37.03z M344,104h64v48h-64V104z M328,168h96v127.38c-6.285-9.411-16.958-15.38-28.8-15.38   c-12.71,0-24.169,6.896-30.211,17.685c-5.754-5.545-13.099-8.867-20.989-9.548V216h-16V168z M216,32h32v16h-32V32z M200,64h64v16   h-64V64z M216,96h32v120h-16v-88h-16V96z M72,96h64v32h-16v64h-8.984L72,201.754V96z M104,210.246v96.327   C97.219,299.887,88.022,296,78.111,296h-1.167c-7.772,0-14.987,2.418-20.944,6.534v-80.287L104,210.246z M48,352h8v-8v-11.056   C56,321.396,65.396,312,76.944,312h1.167c7.984,0,15.162,4.437,18.733,11.578L99.056,328H104c8.822,0,16,7.178,16,16v8h8   c8.822,0,16,7.178,16,16H32C32,359.178,39.178,352,48,352z M139.811,338.266l2.848-5.696c3.877-7.754,11.67-12.57,20.338-12.57   h9.947l3.056-6.112c3.05-6.099,9.181-9.888,16-9.888s12.95,3.789,16,9.889l3.056,6.111h11.612c6.527,0,12.191,4.423,13.775,10.755   L241.754,352H248c10.025,0,18.761,6.523,21.698,16H160C160,354.526,151.625,342.976,139.811,338.266z"/><rect height="16" width="16" x="72" y="232"/><rect height="16" width="16" x="72" y="264"/><rect height="16" width="48" x="152" y="160"/><rect height="16" width="32" x="168" y="192"/><rect height="16" width="32" x="168" y="224"/><rect height="16" width="32" x="168" y="256"/><rect height="16" width="64" x="248" y="248"/><rect height="16" width="48" x="248" y="280"/><rect height="16" width="64" x="344" y="184"/><rect height="16" width="48" x="360" y="216"/><rect height="16" width="48" x="360" y="248"/></g></svg>