<?xml version="1.0" encoding="UTF-8"?>
<svg xmlns="http://www.w3.org/2000/svg" xmlns:xlink="http://www.w3.org/1999/xlink" width="30px" height="30px" viewBox="0 0 30 30" version="1.1">
<g id="surface1">
<path style=" stroke:none;fill-rule:nonzero;fill:rgb(0%,0%,0%);fill-opacity:1;" d="M 23.988281 27.898438 L 23.988281 7.015625 L 24.59375 7.015625 L 24.59375 3.640625 L 5.40625 3.640625 L 5.40625 7.015625 L 6.011719 7.015625 L 6.011719 27.898438 L 4.875 27.898438 L 4.875 30 L 25.125 30 L 25.125 27.898438 Z M 13.402344 8.117188 L 16.597656 8.117188 L 16.597656 11.308594 L 13.402344 11.308594 Z M 13.402344 13.449219 L 16.597656 13.449219 L 16.597656 16.640625 L 13.402344 16.640625 Z M 8.269531 8.117188 L 11.460938 8.117188 L 11.460938 11.308594 L 8.269531 11.308594 Z M 8.269531 13.449219 L 11.460938 13.449219 L 11.460938 16.640625 L 8.269531 16.640625 Z M 18.097656 21.707031 L 18.097656 27.898438 L 11.902344 27.898438 L 11.902344 21.707031 L 11.050781 21.707031 C 11.050781 19.527344 12.820312 17.761719 15 17.761719 C 17.179688 17.761719 18.949219 19.527344 18.949219 21.707031 Z M 21.730469 16.640625 L 18.539062 16.640625 L 18.539062 13.449219 L 21.730469 13.449219 Z M 21.730469 11.308594 L 18.539062 11.308594 L 18.539062 8.117188 L 21.730469 8.117188 Z M 21.730469 11.308594 "/>
<path style=" stroke:none;fill-rule:nonzero;fill:rgb(0%,0%,0%);fill-opacity:1;" d="M 11.402344 3.15625 L 18.597656 3.15625 C 19.46875 3.15625 20.175781 2.449219 20.175781 1.578125 C 20.175781 0.707031 19.46875 0 18.597656 0 L 11.402344 0 C 10.53125 0 9.824219 0.707031 9.824219 1.578125 C 9.824219 2.449219 10.53125 3.15625 11.402344 3.15625 Z M 17.511719 0.730469 L 17.890625 0.730469 L 17.890625 2.074219 L 18.550781 2.074219 L 18.550781 2.390625 L 17.511719 2.390625 Z M 16.195312 0.730469 L 17.222656 0.730469 L 17.222656 1.039062 L 16.574219 1.039062 L 16.574219 1.382812 L 17.183594 1.382812 L 17.183594 1.6875 L 16.574219 1.6875 L 16.574219 2.082031 L 17.253906 2.082031 L 17.253906 2.390625 L 16.195312 2.390625 Z M 14.71875 0.730469 L 15.996094 0.730469 L 15.996094 1.046875 L 15.542969 1.046875 L 15.542969 2.390625 L 15.167969 2.390625 L 15.167969 1.046875 L 14.71875 1.046875 Z M 13.878906 0.703125 C 14.390625 0.703125 14.667969 1.085938 14.667969 1.542969 C 14.667969 2.085938 14.339844 2.417969 13.851562 2.417969 C 13.359375 2.417969 13.070312 2.046875 13.070312 1.574219 C 13.070312 1.074219 13.390625 0.703125 13.878906 0.703125 Z M 11.449219 0.730469 L 11.828125 0.730469 L 11.828125 1.367188 L 12.445312 1.367188 L 12.445312 0.730469 L 12.820312 0.730469 L 12.820312 2.390625 L 12.445312 2.390625 L 12.445312 1.695312 L 11.828125 1.695312 L 11.828125 2.390625 L 11.449219 2.390625 Z M 11.449219 0.730469 "/>
<path style=" stroke:none;fill-rule:nonzero;fill:rgb(0%,0%,0%);fill-opacity:1;" d="M 13.871094 2.121094 C 14.125 2.121094 14.273438 1.878906 14.273438 1.554688 C 14.273438 1.257812 14.128906 1 13.871094 1 C 13.617188 1 13.46875 1.242188 13.46875 1.566406 C 13.46875 1.890625 13.621094 2.121094 13.871094 2.121094 Z M 13.871094 2.121094 "/>
</g>
</svg>
