<?xml version="1.0" encoding="UTF-8"?>
<svg xmlns="http://www.w3.org/2000/svg" xmlns:xlink="http://www.w3.org/1999/xlink" width="30px" height="30px" viewBox="0 0 30 30" version="1.1">
<g id="surface1">
<path style=" stroke:none;fill-rule:nonzero;fill:rgb(0%,0%,0%);fill-opacity:1;" d="M 23.84375 2.675781 C 22.210938 4.917969 20.480469 7.308594 18.855469 9.554688 C 13.792969 9.589844 8.855469 9.46875 3.792969 9.492188 C 3.378906 10.066406 2.964844 10.640625 2.546875 11.214844 C 6.734375 12.300781 10.914062 13.386719 15.097656 14.472656 C 13.734375 16.300781 12.5 18.226562 11.746094 20.496094 C 9.464844 20.582031 7.171875 20.679688 4.890625 20.777344 C 4.632812 21.117188 4.378906 21.472656 4.132812 21.828125 C 6.230469 22.546875 8.695312 22.714844 10.792969 23.425781 C 12.101562 25.242188 12.390625 27.339844 13.699219 29.144531 C 13.964844 28.875 14.78125 28.230469 15.050781 27.960938 C 14.429688 25.753906 13.890625 24.203125 13.269531 21.996094 C 15.234375 20.398438 16.792969 18.519531 17.964844 16.335938 C 20.171875 19.886719 22.371094 23.421875 24.578125 26.972656 C 24.96875 26.507812 25.371094 26.058594 25.761719 25.605469 C 24.238281 20.945312 22.710938 16.289062 21.1875 11.617188 C 23.6875 8.261719 28.152344 4.492188 27.359375 0.855469 C 26.039062 0.808594 24.796875 1.566406 23.84375 2.675781 Z M 23.84375 2.675781 "/>
</g>
</svg>
