<?xml version="1.0" encoding="UTF-8"?>
<svg xmlns="http://www.w3.org/2000/svg" xmlns:xlink="http://www.w3.org/1999/xlink" width="30px" height="30px" viewBox="0 0 30 30" version="1.1">
<g id="surface1">
<path style=" stroke:none;fill-rule:nonzero;fill:rgb(0%,0%,0%);fill-opacity:1;" d="M 28.71875 11.011719 C 28.585938 11.011719 28.445312 11.03125 28.308594 11.070312 L 26.851562 11.46875 L 25.308594 7.71875 C 24.847656 6.59375 23.484375 5.679688 22.269531 5.679688 L 21.246094 5.679688 L 21.246094 2.570312 C 21.246094 2.023438 20.800781 1.578125 20.253906 1.578125 L 9.746094 1.578125 C 9.199219 1.578125 8.753906 2.023438 8.753906 2.570312 L 8.753906 5.679688 L 7.710938 5.679688 C 6.496094 5.679688 5.128906 6.59375 4.667969 7.71875 L 3.128906 11.464844 L 1.691406 11.070312 C 1.554688 11.03125 1.414062 11.011719 1.28125 11.011719 C 0.539062 11.011719 0 11.578125 0 12.359375 L 0 13.15625 C 0 14.066406 0.742188 14.808594 1.652344 14.808594 L 1.757812 14.808594 L 1.539062 15.34375 C 1.109375 16.386719 0.761719 18.15625 0.761719 19.285156 L 0.761719 26.769531 C 0.761719 27.679688 1.5 28.421875 2.414062 28.421875 L 4.398438 28.421875 C 5.308594 28.421875 6.050781 27.679688 6.050781 26.769531 L 6.050781 24.929688 L 23.929688 24.929688 L 23.929688 26.769531 C 23.929688 27.679688 24.667969 28.421875 25.582031 28.421875 L 27.566406 28.421875 C 28.476562 28.421875 29.21875 27.679688 29.21875 26.769531 L 29.21875 19.285156 C 29.21875 18.15625 28.871094 16.386719 28.441406 15.34375 L 28.21875 14.808594 L 28.347656 14.808594 C 29.257812 14.808594 30 14.066406 30 13.15625 L 30 12.359375 C 30 11.578125 29.460938 11.011719 28.71875 11.011719 Z M 18.980469 2.902344 C 18.980469 2.878906 19 2.859375 19.023438 2.859375 L 19.785156 2.859375 C 19.808594 2.859375 19.824219 2.878906 19.824219 2.902344 L 19.824219 5.648438 C 19.824219 5.664062 19.816406 5.671875 19.808594 5.679688 L 19 5.679688 C 18.988281 5.671875 18.980469 5.664062 18.980469 5.648438 Z M 13.503906 2.859375 L 14.421875 2.859375 C 14.445312 2.859375 14.46875 2.878906 14.476562 2.898438 L 15.566406 5.636719 L 16.566406 4.402344 C 16.578125 4.382812 16.578125 4.355469 16.566406 4.335938 L 15.609375 2.894531 C 15.597656 2.875 15.605469 2.859375 15.628906 2.859375 L 16.476562 2.859375 C 16.496094 2.859375 16.523438 2.875 16.535156 2.894531 L 17.03125 3.695312 C 17.042969 3.714844 17.058594 3.714844 17.070312 3.695312 L 17.566406 2.894531 C 17.578125 2.875 17.605469 2.859375 17.625 2.859375 L 18.476562 2.859375 C 18.496094 2.859375 18.503906 2.875 18.492188 2.894531 L 17.535156 4.335938 C 17.523438 4.355469 17.523438 4.382812 17.535156 4.402344 L 18.554688 5.660156 C 18.558594 5.667969 18.5625 5.675781 18.558594 5.679688 L 17.660156 5.679688 C 17.648438 5.671875 17.636719 5.664062 17.628906 5.65625 L 17.070312 4.761719 C 17.058594 4.742188 17.042969 4.742188 17.03125 4.761719 L 16.472656 5.65625 C 16.464844 5.664062 16.457031 5.671875 16.445312 5.679688 L 14.746094 5.679688 C 14.734375 5.671875 14.722656 5.664062 14.71875 5.652344 L 14.535156 5.078125 C 14.527344 5.058594 14.503906 5.039062 14.480469 5.039062 L 13.441406 5.039062 C 13.417969 5.039062 13.394531 5.058594 13.386719 5.078125 L 13.1875 5.652344 C 13.183594 5.664062 13.171875 5.671875 13.160156 5.679688 L 12.34375 5.679688 C 12.335938 5.671875 12.335938 5.664062 12.339844 5.652344 L 13.449219 2.898438 C 13.457031 2.878906 13.484375 2.859375 13.503906 2.859375 Z M 10.820312 5.648438 L 10.820312 3.464844 C 10.820312 3.445312 10.800781 3.425781 10.777344 3.425781 L 9.859375 3.425781 C 9.839844 3.425781 9.820312 3.410156 9.820312 3.386719 L 9.820312 2.898438 C 9.820312 2.878906 9.839844 2.859375 9.859375 2.859375 L 12.625 2.859375 C 12.648438 2.859375 12.664062 2.878906 12.664062 2.898438 L 12.664062 3.386719 C 12.664062 3.410156 12.648438 3.425781 12.625 3.425781 L 11.703125 3.425781 C 11.679688 3.425781 11.664062 3.445312 11.664062 3.464844 L 11.664062 5.648438 C 11.664062 5.664062 11.65625 5.671875 11.644531 5.679688 L 10.835938 5.679688 C 10.828125 5.671875 10.820312 5.664062 10.820312 5.648438 Z M 4.296875 13.886719 L 6.636719 8.1875 C 6.914062 7.511719 7.734375 6.964844 8.460938 6.964844 L 21.515625 6.964844 C 22.242188 6.964844 23.066406 7.511719 23.339844 8.1875 L 25.679688 13.886719 C 25.957031 14.558594 25.589844 15.109375 24.863281 15.109375 L 5.117188 15.109375 C 4.390625 15.109375 4.023438 14.558594 4.296875 13.886719 Z M 9.585938 21.226562 C 9.585938 21.589844 9.285156 21.890625 8.921875 21.890625 L 4.457031 21.890625 C 4.09375 21.890625 3.796875 21.589844 3.796875 21.226562 L 3.796875 19.109375 C 3.796875 18.746094 4.09375 18.449219 4.457031 18.449219 L 8.921875 18.449219 C 9.285156 18.449219 9.585938 18.746094 9.585938 19.109375 Z M 26.140625 21.226562 C 26.140625 21.589844 25.84375 21.890625 25.480469 21.890625 L 21.011719 21.890625 C 20.648438 21.890625 20.351562 21.589844 20.351562 21.226562 L 20.351562 19.109375 C 20.351562 18.746094 20.648438 18.449219 21.011719 18.449219 L 25.480469 18.449219 C 25.84375 18.449219 26.140625 18.746094 26.140625 19.109375 Z M 26.140625 21.226562 "/>
<path style=" stroke:none;fill-rule:nonzero;fill:rgb(0%,0%,0%);fill-opacity:1;" d="M 14.296875 4.476562 C 14.316406 4.476562 14.328125 4.457031 14.320312 4.4375 L 13.992188 3.679688 C 13.980469 3.660156 13.96875 3.660156 13.957031 3.679688 L 13.609375 4.4375 C 13.601562 4.460938 13.609375 4.476562 13.632812 4.476562 Z M 14.296875 4.476562 "/>
</g>
</svg>
