<svg width="46" height="46" viewBox="0 0 46 46" fill="none" xmlns="http://www.w3.org/2000/svg">
<path fill-rule="evenodd" clip-rule="evenodd" d="M25.9896 12.9151L25.9896 45.2028L20.0104 45.2028L20.0104 12.9151L23 11.2409L25.9896 12.9151Z" fill="#44C47F" style="fill:#44C47F;fill:color(display-p3 0.2667 0.7686 0.4980);fill-opacity:1;"/>
<path fill-rule="evenodd" clip-rule="evenodd" d="M13.2369 13.8992L33.6043 25.6583L36.2244 30.2086L32.9172 32.1899L12.4808 20.3909L9.87138 15.8221L13.2369 13.8992Z" fill="#44C47F" style="fill:#44C47F;fill:color(display-p3 0.2667 0.7686 0.4980);fill-opacity:1;"/>
<path fill-rule="evenodd" clip-rule="evenodd" d="M33.6388 20.3218L13.1679 32.1407L9.79695 30.2883L12.4117 25.6491L32.7446 13.9099L36.308 15.8566L33.6388 20.3218Z" fill="#44C47F" style="fill:#44C47F;fill:color(display-p3 0.2667 0.7686 0.4980);fill-opacity:1;"/>
<path fill-rule="evenodd" clip-rule="evenodd" d="M23 6.00001C13.6112 6.00001 6.00001 13.6112 6.00001 23C6.00001 32.3889 13.6112 40.0001 23 40.0001C32.3889 40.0001 40.0001 32.3889 40.0001 23C40.0001 13.6112 32.3889 6.00002 23 6.00001ZM-3.62805e-06 23C-1.62433e-06 10.2975 10.2975 1.62433e-06 23 3.62805e-06C35.7026 5.63177e-06 46.0001 10.2975 46.0001 23C46.0001 35.7026 35.7026 46.0001 23 46.0001C10.2975 46.0001 -5.63177e-06 35.7026 -3.62805e-06 23Z" fill="#44C47F" style="fill:#44C47F;fill:color(display-p3 0.2667 0.7686 0.4980);fill-opacity:1;"/>
</svg>
