<svg width="30" height="30" viewBox="0 0 30 30" fill="none" xmlns="http://www.w3.org/2000/svg">
    <path id="logo1" fill-rule="evenodd" clip-rule="evenodd" d="M4.65217 15C4.65217 9.28505 9.28505 4.65218 15 4.65218C20.7149
4.65218 25.3478 9.28506 25.3478 15C25.3478 20.0941 21.6669 24.3284 16.8198 25.1883L16.8198 18.1593L21.0365
20.5938L23.0496 19.3878L21.4548 16.6181L18.6522 15L21.4758 13.3698L23.1005 10.6519L20.9315 9.46689L16.8198
11.8408L16.8198 8.86135L15.0001 7.84229L13.1803 8.86135L13.1803 11.8408L9.05725 9.46039L7.00865 10.6309L8.59699
13.4118L11.3478 15L8.55498 16.6125L6.96338 19.4363L9.01524 20.5639L13.1803 18.1592L13.1803 25.1883C8.33312
24.3284 4.65217 20.0941 4.65217 15ZM15 1C7.26801 1 0.999999 7.26801 0.999998 15C0.999997 22.732 7.26801 29
15 29C22.732 29 29 22.732 29 15C29 7.26802 22.732 1 15 1Z"
          style="fill:white;fill-opacity:1;"/>
    <path id="logo2" d="M16.8198 25.1883L16.7198 25.1883L16.7198 25.3076L16.8373 25.2868L16.8198 25.1883ZM16.8198 18.1593L16.8698
18.0727L16.7198 17.9861L16.7198 18.1593L16.8198 18.1593ZM21.0365 20.5938L20.9865 20.6804L21.0375 20.7098L21.0879
 20.6796L21.0365 20.5938ZM23.0496 19.3878L23.101 19.4736L23.1853 19.4231L23.1363 19.3379L23.0496 19.3878ZM21.4548
  16.6181L21.5414 16.5682L21.528 16.5449L21.5048 16.5315L21.4548 16.6181ZM18.6522 15L18.6022 14.9134L18.4522
   15L18.6022 15.0866L18.6522 15ZM21.4758 13.3698L21.5258 13.4564L21.5483 13.4434L21.5616 13.4211L21.4758
   13.3698ZM23.1005 10.6519L23.1864 10.7032L23.2397 10.6139L23.1485 10.5641L23.1005 10.6519ZM20.9315
   9.46689L20.9794 9.37914L20.9301 9.35221L20.8815 9.38029L20.9315 9.46689ZM16.8198 11.8408L16.7198
   11.8408L16.7198 12.014L16.8698 11.9274L16.8198 11.8408ZM16.8198 8.86135L16.9198 8.86135L16.9198
   8.80274L16.8687 8.7741L16.8198 8.86135ZM15.0001 7.84229L15.0489 7.75503L15.0001 7.72767L14.9512
   7.75503L15.0001 7.84229ZM13.1803 8.86135L13.1314 8.7741L13.0803 8.80274L13.0803 8.86135L13.1803
   8.86135ZM13.1803 11.8408L13.1303 11.9274L13.2803 12.014L13.2803 11.8408L13.1803 11.8408ZM9.05725
   9.46039L9.10725 9.37378L9.05751 9.34507L9.00764 9.37356L9.05725 9.46039ZM7.00865 10.6309L6.95904
   10.544L6.87223 10.5936L6.92181 10.6804L7.00865 10.6309ZM8.59699 13.4118L8.51016 13.4614L8.52357
   13.4849L8.54699 13.4984L8.59699 13.4118ZM11.3478 15L11.3978 15.0866L11.5478 15L11.3978 14.9134L11.3478
   15ZM8.55498 16.6125L8.50498 16.5259L8.48129 16.5395L8.46786 16.5634L8.55498 16.6125ZM6.96338
   19.4363L6.87626 19.3872L6.82663 19.4753L6.91522 19.524L6.96338 19.4363ZM9.01524 20.5639L8.96708
   20.6515L9.01645 20.6787L9.06524 20.6505L9.01524 20.5639ZM13.1803 18.1592L13.2803 18.1592L13.2803
    17.986L13.1303 18.0726L13.1803 18.1592ZM13.1803 25.1883L13.1628 25.2868L13.2803 25.3076L13.2803
     25.1883L13.1803 25.1883ZM15 4.55218C9.22982 4.55218 4.55217 9.22983 4.55217 15L4.75217 15C4.75217
     9.34028 9.34028 4.75218 15 4.75218L15 4.55218ZM25.4478 15C25.4478 9.22983 20.7702 4.55218 15 4.55218L15
     4.75218C20.6597 4.75218 25.2478 9.34029 25.2478 15L25.4478 15ZM16.8373 25.2868C21.7313 24.4185 25.4478
     20.1434 25.4478 15L25.2478 15C25.2478 20.0447 21.6025 24.2382 16.8023 25.0899L16.8373 25.2868ZM16.9198
     25.1883L16.9198 18.1593L16.7198 18.1593L16.7198 25.1883L16.9198 25.1883ZM16.7698 18.2459L20.9865
     20.6804L21.0865 20.5072L16.8698 18.0727L16.7698 18.2459ZM21.0879 20.6796L23.101 19.4736L22.9982
     19.302L20.9852 20.508L21.0879 20.6796ZM23.1363 19.3379L21.5414 16.5682L21.3681 16.668L22.963 19.4377L23.1363
      19.3379ZM21.5048 16.5315L18.7022 14.9134L18.6022 15.0866L21.4048 16.7047L21.5048 16.5315ZM18.7022
      15.0866L21.5258 13.4564L21.4258 13.2832L18.6022 14.9134L18.7022 15.0866ZM21.5616 13.4211L23.1864
      10.7032L23.0147 10.6006L21.39 13.3185L21.5616 13.4211ZM23.1485 10.5641L20.9794 9.37914L20.8835
      9.55465L23.0526 10.7396L23.1485 10.5641ZM20.8815 9.38029L16.7698 11.7542L16.8698 11.9274L20.9815
       9.5535L20.8815 9.38029ZM16.9198 11.8408L16.9198 8.86135L16.7198 8.86135L16.7198 11.8408L16.9198
       11.8408ZM16.8687 8.7741L15.0489 7.75503L14.9512 7.92954L16.771 8.9486L16.8687 8.7741ZM14.9512
        7.75503L13.1314 8.7741L13.2292 8.9486L15.0489 7.92954L14.9512 7.75503ZM13.0803 8.86135L13.0803
         11.8408L13.2803 11.8408L13.2803 8.86135L13.0803 8.86135ZM13.2303 11.7542L9.10725 9.37378L9.00725
          9.54699L13.1303 11.9274L13.2303 11.7542ZM9.00764 9.37356L6.95904 10.544L7.05826 10.7177L9.10686
           9.54721L9.00764 9.37356ZM6.92181 10.6804L8.51016 13.4614L8.68383 13.3622L7.09548 10.5813L6.92181
            10.6804ZM8.54699 13.4984L11.2978 15.0866L11.3978 14.9134L8.64699 13.3252L8.54699 13.4984ZM11.2978 14.9134L8.50498 16.5259L8.60498 16.6991L11.3978 15.0866L11.2978 14.9134ZM8.46786 16.5634L6.87626 19.3872L7.05049 19.4854L8.64209 16.6616L8.46786 16.5634ZM6.91522 19.524L8.96708 20.6515L9.0634 20.4763L7.01154 19.3487L6.91522 19.524ZM9.06524 20.6505L13.2303 18.2458L13.1303 18.0726L8.96524 20.4773L9.06524 20.6505ZM13.0803 18.1592L13.0803 25.1883L13.2803 25.1883L13.2803 18.1592L13.0803 18.1592ZM4.55217 15C4.55217 20.1434 8.26875 24.4186 13.1628 25.2868L13.1978 25.0899C8.3975 24.2383 4.75217 20.0448 4.75217 15L4.55217 15ZM1.1 15C1.1 7.32324 7.32324 1.1 15 1.1L15 0.900002C7.21278 0.900001 0.899999 7.21278 0.899998 15L1.1 15ZM15 28.9C7.32324 28.9 1.1 22.6768 1.1 15L0.899998 15C0.899997 22.7872 7.21278 29.1 15 29.1L15 28.9ZM28.9 15C28.9 22.6768 22.6767 28.9 15 28.9L15 29.1C22.7872 29.1 29.1 22.7872 29.1 15L28.9 15ZM15 1.1C22.6768 1.1 28.9 7.32325 28.9 15L29.1 15C29.1 7.21279 22.7872 0.900003 15 0.900002L15 1.1Z"
           style="fill:white;fill-opacity:1;"/>
</svg>



