<svg width="17" height="16" viewBox="0 0 17 16" fill="none" xmlns="http://www.w3.org/2000/svg">
<path stroke="black"  d="M12.2007 12.8L11.0007 7.33333L13.334 5C14.334 4 14.6673 2.66667 14.334 2C13.6673 1.66667 12.334 2
11.334 3L9.00065 5.33333L3.53398 4.13333C3.20065 4.06667 2.93398 4.2 2.80065 4.46667L2.60065 4.8C2.46732 5.13333
2.53398 5.46667 2.80065 5.66667L6.33398 8L5.00065 10H3.00065L2.33398 10.6667L4.33398 12L5.66732 14L6.33398
13.3333V11.3333L8.33398 10L10.6673 13.5333C10.8673 13.8 11.2007 13.8667 11.534 13.7333L11.8673 13.6C12.134
13.4 12.2673 13.1333 12.2007 12.8Z" fill="black" style="fill:black;fill:black;fill-opacity:1;"/>
</svg>
